 solid mo_tri                          
  facet normal  -4.331397550050E-01  0.000000000000E+00 -9.013267735035E-01
    outer loop
      vertex   5.277777777780E-01  1.250000000000E-01  1.546372188108E+00
      vertex   0.000000000000E+00  0.000000000000E+00  1.800000000000E+00
      vertex   0.000000000000E+00  2.500000000000E-01  1.800000000000E+00
    endloop
  endfacet
  facet normal  -4.331397550050E-01 -9.480066978830E-16 -9.013267735035E-01
    outer loop
      vertex   5.277777777780E-01  1.250000000000E-01  1.546372188108E+00
      vertex   0.000000000000E+00  2.500000000000E-01  1.800000000000E+00
      vertex   1.055555555556E+00  2.500000000000E-01  1.292744376215E+00
    endloop
  endfacet
  facet normal  -4.331397550050E-01  0.000000000000E+00 -9.013267735035E-01
    outer loop
      vertex   5.277777777780E-01  1.250000000000E-01  1.546372188108E+00
      vertex   1.055555555556E+00  2.500000000000E-01  1.292744376215E+00
      vertex   1.055555555556E+00  0.000000000000E+00  1.292744376215E+00
    endloop
  endfacet
  facet normal  -4.331397550050E-01  9.480066978830E-16 -9.013267735035E-01
    outer loop
      vertex   5.277777777780E-01  1.250000000000E-01  1.546372188108E+00
      vertex   1.055555555556E+00  0.000000000000E+00  1.292744376215E+00
      vertex   0.000000000000E+00  0.000000000000E+00  1.800000000000E+00
    endloop
  endfacet
  facet normal   4.331397550050E-01 -1.706412056189E-15  9.013267735035E-01
    outer loop
      vertex   5.277777777780E-01  1.250000000000E-01  2.546372188108E+00
      vertex   0.000000000000E+00  0.000000000000E+00  2.800000000000E+00
      vertex   1.055555555556E+00  0.000000000000E+00  2.292744376215E+00
    endloop
  endfacet
  facet normal   4.331397550050E-01  0.000000000000E+00  9.013267735035E-01
    outer loop
      vertex   5.277777777780E-01  1.250000000000E-01  2.546372188108E+00
      vertex   1.055555555556E+00  0.000000000000E+00  2.292744376215E+00
      vertex   1.055555555556E+00  2.500000000000E-01  2.292744376215E+00
    endloop
  endfacet
  facet normal   4.331397550050E-01  1.706412056189E-15  9.013267735035E-01
    outer loop
      vertex   5.277777777780E-01  1.250000000000E-01  2.546372188108E+00
      vertex   1.055555555556E+00  2.500000000000E-01  2.292744376215E+00
      vertex   0.000000000000E+00  2.500000000000E-01  2.800000000000E+00
    endloop
  endfacet
  facet normal   4.331397550050E-01  0.000000000000E+00  9.013267735035E-01
    outer loop
      vertex   5.277777777780E-01  1.250000000000E-01  2.546372188108E+00
      vertex   0.000000000000E+00  2.500000000000E-01  2.800000000000E+00
      vertex   0.000000000000E+00  0.000000000000E+00  2.800000000000E+00
    endloop
  endfacet
  facet normal   0.000000000000E+00 -1.000000000000E+00  0.000000000000E+00
    outer loop
      vertex   5.277777777780E-01  0.000000000000E+00  2.046372188108E+00
      vertex   0.000000000000E+00  0.000000000000E+00  1.800000000000E+00
      vertex   1.055555555556E+00  0.000000000000E+00  1.292744376215E+00
    endloop
  endfacet
  facet normal   0.000000000000E+00 -1.000000000000E+00  0.000000000000E+00
    outer loop
      vertex   5.277777777780E-01  0.000000000000E+00  2.046372188108E+00
      vertex   1.055555555556E+00  0.000000000000E+00  1.292744376215E+00
      vertex   1.055555555556E+00  0.000000000000E+00  2.292744376215E+00
    endloop
  endfacet
  facet normal   0.000000000000E+00 -1.000000000000E+00  0.000000000000E+00
    outer loop
      vertex   5.277777777780E-01  0.000000000000E+00  2.046372188108E+00
      vertex   1.055555555556E+00  0.000000000000E+00  2.292744376215E+00
      vertex   0.000000000000E+00  0.000000000000E+00  2.800000000000E+00
    endloop
  endfacet
  facet normal   0.000000000000E+00 -1.000000000000E+00  0.000000000000E+00
    outer loop
      vertex   5.277777777780E-01  0.000000000000E+00  2.046372188108E+00
      vertex   0.000000000000E+00  0.000000000000E+00  2.800000000000E+00
      vertex   0.000000000000E+00  0.000000000000E+00  1.800000000000E+00
    endloop
  endfacet
  facet normal  -1.000000000000E+00  0.000000000000E+00  0.000000000000E+00
    outer loop
      vertex   0.000000000000E+00  1.250000000000E-01  2.300000000000E+00
      vertex   0.000000000000E+00  0.000000000000E+00  1.800000000000E+00
      vertex   0.000000000000E+00  0.000000000000E+00  2.800000000000E+00
    endloop
  endfacet
  facet normal  -1.000000000000E+00  0.000000000000E+00  0.000000000000E+00
    outer loop
      vertex   0.000000000000E+00  1.250000000000E-01  2.300000000000E+00
      vertex   0.000000000000E+00  0.000000000000E+00  2.800000000000E+00
      vertex   0.000000000000E+00  2.500000000000E-01  2.800000000000E+00
    endloop
  endfacet
  facet normal  -1.000000000000E+00  0.000000000000E+00  0.000000000000E+00
    outer loop
      vertex   0.000000000000E+00  1.250000000000E-01  2.300000000000E+00
      vertex   0.000000000000E+00  2.500000000000E-01  2.800000000000E+00
      vertex   0.000000000000E+00  2.500000000000E-01  1.800000000000E+00
    endloop
  endfacet
  facet normal  -1.000000000000E+00  0.000000000000E+00  0.000000000000E+00
    outer loop
      vertex   0.000000000000E+00  1.250000000000E-01  2.300000000000E+00
      vertex   0.000000000000E+00  2.500000000000E-01  1.800000000000E+00
      vertex   0.000000000000E+00  0.000000000000E+00  1.800000000000E+00
    endloop
  endfacet
  facet normal  -6.903231569280E-01  0.000000000000E+00 -7.235011672478E-01
    outer loop
      vertex   1.583333333334E+00  1.250000000000E-01  7.891692083991E-01
      vertex   1.055555555556E+00  0.000000000000E+00  1.292744376215E+00
      vertex   1.055555555556E+00  2.500000000000E-01  1.292744376215E+00
    endloop
  endfacet
  facet normal  -6.903231569280E-01  0.000000000000E+00 -7.235011672478E-01
    outer loop
      vertex   1.583333333334E+00  1.250000000000E-01  7.891692083991E-01
      vertex   1.055555555556E+00  2.500000000000E-01  1.292744376215E+00
      vertex   2.111111111111E+00  2.500000000000E-01  2.855940405832E-01
    endloop
  endfacet
  facet normal  -6.903231569280E-01  0.000000000000E+00 -7.235011672478E-01
    outer loop
      vertex   1.583333333334E+00  1.250000000000E-01  7.891692083991E-01
      vertex   2.111111111111E+00  2.500000000000E-01  2.855940405832E-01
      vertex   2.111111111111E+00  0.000000000000E+00  2.855940405832E-01
    endloop
  endfacet
  facet normal  -6.903231569280E-01  0.000000000000E+00 -7.235011672478E-01
    outer loop
      vertex   1.583333333334E+00  1.250000000000E-01  7.891692083991E-01
      vertex   2.111111111111E+00  0.000000000000E+00  2.855940405832E-01
      vertex   1.055555555556E+00  0.000000000000E+00  1.292744376215E+00
    endloop
  endfacet
  facet normal   6.903231569281E-01 -6.087771695157E-16  7.235011672477E-01
    outer loop
      vertex   1.583333333334E+00  1.250000000000E-01  1.789169208399E+00
      vertex   1.055555555556E+00  0.000000000000E+00  2.292744376215E+00
      vertex   2.111111111111E+00  0.000000000000E+00  1.285594040583E+00
    endloop
  endfacet
  facet normal   6.903231569281E-01  0.000000000000E+00  7.235011672477E-01
    outer loop
      vertex   1.583333333334E+00  1.250000000000E-01  1.789169208399E+00
      vertex   2.111111111111E+00  0.000000000000E+00  1.285594040583E+00
      vertex   2.111111111111E+00  2.500000000000E-01  1.285594040583E+00
    endloop
  endfacet
  facet normal   6.903231569281E-01  6.087771695157E-16  7.235011672477E-01
    outer loop
      vertex   1.583333333334E+00  1.250000000000E-01  1.789169208399E+00
      vertex   2.111111111111E+00  2.500000000000E-01  1.285594040583E+00
      vertex   1.055555555556E+00  2.500000000000E-01  2.292744376215E+00
    endloop
  endfacet
  facet normal   6.903231569281E-01  0.000000000000E+00  7.235011672477E-01
    outer loop
      vertex   1.583333333334E+00  1.250000000000E-01  1.789169208399E+00
      vertex   1.055555555556E+00  2.500000000000E-01  2.292744376215E+00
      vertex   1.055555555556E+00  0.000000000000E+00  2.292744376215E+00
    endloop
  endfacet
  facet normal   0.000000000000E+00 -1.000000000000E+00  0.000000000000E+00
    outer loop
      vertex   1.583333333334E+00  0.000000000000E+00  1.289169208399E+00
      vertex   1.055555555556E+00  0.000000000000E+00  1.292744376215E+00
      vertex   2.111111111111E+00  0.000000000000E+00  2.855940405832E-01
    endloop
  endfacet
  facet normal   0.000000000000E+00 -1.000000000000E+00  0.000000000000E+00
    outer loop
      vertex   1.583333333334E+00  0.000000000000E+00  1.289169208399E+00
      vertex   2.111111111111E+00  0.000000000000E+00  2.855940405832E-01
      vertex   2.111111111111E+00  0.000000000000E+00  1.285594040583E+00
    endloop
  endfacet
  facet normal   0.000000000000E+00 -1.000000000000E+00  0.000000000000E+00
    outer loop
      vertex   1.583333333334E+00  0.000000000000E+00  1.289169208399E+00
      vertex   2.111111111111E+00  0.000000000000E+00  1.285594040583E+00
      vertex   1.055555555556E+00  0.000000000000E+00  2.292744376215E+00
    endloop
  endfacet
  facet normal   0.000000000000E+00 -1.000000000000E+00  0.000000000000E+00
    outer loop
      vertex   1.583333333334E+00  0.000000000000E+00  1.289169208399E+00
      vertex   1.055555555556E+00  0.000000000000E+00  2.292744376215E+00
      vertex   1.055555555556E+00  0.000000000000E+00  1.292744376215E+00
    endloop
  endfacet
  facet normal  -4.177096244680E-01  0.000000000000E+00 -9.085805796003E-01
    outer loop
      vertex   2.638888888889E+00  1.250000000000E-01  4.295418858990E-02
      vertex   2.111111111111E+00  0.000000000000E+00  2.855940405832E-01
      vertex   2.111111111111E+00  2.500000000000E-01  2.855940405832E-01
    endloop
  endfacet
  facet normal  -4.177096244680E-01 -7.645089442351E-16 -9.085805796003E-01
    outer loop
      vertex   2.638888888889E+00  1.250000000000E-01  4.295418858990E-02
      vertex   2.111111111111E+00  2.500000000000E-01  2.855940405832E-01
      vertex   3.166666666667E+00  2.500000000000E-01 -1.996856634034E-01
    endloop
  endfacet
  facet normal  -4.177096244680E-01  0.000000000000E+00 -9.085805796003E-01
    outer loop
      vertex   2.638888888889E+00  1.250000000000E-01  4.295418858990E-02
      vertex   3.166666666667E+00  2.500000000000E-01 -1.996856634034E-01
      vertex   3.166666666667E+00  0.000000000000E+00 -1.996856634034E-01
    endloop
  endfacet
  facet normal  -4.177096244680E-01  7.645089442351E-16 -9.085805796003E-01
    outer loop
      vertex   2.638888888889E+00  1.250000000000E-01  4.295418858990E-02
      vertex   3.166666666667E+00  0.000000000000E+00 -1.996856634034E-01
      vertex   2.111111111111E+00  0.000000000000E+00  2.855940405832E-01
    endloop
  endfacet
  facet normal   4.177096244679E-01 -3.822544721176E-16  9.085805796004E-01
    outer loop
      vertex   2.638888888889E+00  1.250000000000E-01  1.042954188590E+00
      vertex   2.111111111111E+00  0.000000000000E+00  1.285594040583E+00
      vertex   3.166666666667E+00  0.000000000000E+00  8.003143365966E-01
    endloop
  endfacet
  facet normal   4.177096244679E-01  0.000000000000E+00  9.085805796004E-01
    outer loop
      vertex   2.638888888889E+00  1.250000000000E-01  1.042954188590E+00
      vertex   3.166666666667E+00  0.000000000000E+00  8.003143365966E-01
      vertex   3.166666666667E+00  2.500000000000E-01  8.003143365966E-01
    endloop
  endfacet
  facet normal   4.177096244679E-01  3.822544721176E-16  9.085805796004E-01
    outer loop
      vertex   2.638888888889E+00  1.250000000000E-01  1.042954188590E+00
      vertex   3.166666666667E+00  2.500000000000E-01  8.003143365966E-01
      vertex   2.111111111111E+00  2.500000000000E-01  1.285594040583E+00
    endloop
  endfacet
  facet normal   4.177096244679E-01  0.000000000000E+00  9.085805796004E-01
    outer loop
      vertex   2.638888888889E+00  1.250000000000E-01  1.042954188590E+00
      vertex   2.111111111111E+00  2.500000000000E-01  1.285594040583E+00
      vertex   2.111111111111E+00  0.000000000000E+00  1.285594040583E+00
    endloop
  endfacet
  facet normal   0.000000000000E+00 -1.000000000000E+00  0.000000000000E+00
    outer loop
      vertex   2.638888888889E+00  0.000000000000E+00  5.429541885899E-01
      vertex   2.111111111111E+00  0.000000000000E+00  2.855940405832E-01
      vertex   3.166666666667E+00  0.000000000000E+00 -1.996856634034E-01
    endloop
  endfacet
  facet normal   0.000000000000E+00 -1.000000000000E+00  0.000000000000E+00
    outer loop
      vertex   2.638888888889E+00  0.000000000000E+00  5.429541885899E-01
      vertex   3.166666666667E+00  0.000000000000E+00 -1.996856634034E-01
      vertex   3.166666666667E+00  0.000000000000E+00  8.003143365966E-01
    endloop
  endfacet
  facet normal   0.000000000000E+00 -1.000000000000E+00  0.000000000000E+00
    outer loop
      vertex   2.638888888889E+00  0.000000000000E+00  5.429541885899E-01
      vertex   3.166666666667E+00  0.000000000000E+00  8.003143365966E-01
      vertex   2.111111111111E+00  0.000000000000E+00  1.285594040583E+00
    endloop
  endfacet
  facet normal   0.000000000000E+00 -1.000000000000E+00  0.000000000000E+00
    outer loop
      vertex   2.638888888889E+00  0.000000000000E+00  5.429541885899E-01
      vertex   2.111111111111E+00  0.000000000000E+00  1.285594040583E+00
      vertex   2.111111111111E+00  0.000000000000E+00  2.855940405832E-01
    endloop
  endfacet
  facet normal   4.479824052981E-01  0.000000000000E+00 -8.940423729015E-01
    outer loop
      vertex   3.694444444445E+00  1.250000000000E-01  6.477065938180E-02
      vertex   3.166666666667E+00  0.000000000000E+00 -1.996856634034E-01
      vertex   3.166666666667E+00  2.500000000000E-01 -1.996856634034E-01
    endloop
  endfacet
  facet normal   4.479824052981E-01  1.692621065648E-15 -8.940423729015E-01
    outer loop
      vertex   3.694444444445E+00  1.250000000000E-01  6.477065938180E-02
      vertex   3.166666666667E+00  2.500000000000E-01 -1.996856634034E-01
      vertex   4.222222222222E+00  2.500000000000E-01  3.292269821670E-01
    endloop
  endfacet
  facet normal   4.479824052981E-01  0.000000000000E+00 -8.940423729015E-01
    outer loop
      vertex   3.694444444445E+00  1.250000000000E-01  6.477065938180E-02
      vertex   4.222222222222E+00  2.500000000000E-01  3.292269821670E-01
      vertex   4.222222222222E+00  0.000000000000E+00  3.292269821670E-01
    endloop
  endfacet
  facet normal   4.479824052981E-01 -1.692621065648E-15 -8.940423729015E-01
    outer loop
      vertex   3.694444444445E+00  1.250000000000E-01  6.477065938180E-02
      vertex   4.222222222222E+00  0.000000000000E+00  3.292269821670E-01
      vertex   3.166666666667E+00  0.000000000000E+00 -1.996856634034E-01
    endloop
  endfacet
  facet normal  -4.479824052981E-01 -3.761380145885E-16  8.940423729015E-01
    outer loop
      vertex   3.694444444445E+00  1.250000000000E-01  1.064770659382E+00
      vertex   3.166666666667E+00  0.000000000000E+00  8.003143365966E-01
      vertex   4.222222222222E+00  0.000000000000E+00  1.329226982167E+00
    endloop
  endfacet
  facet normal  -4.479824052981E-01  0.000000000000E+00  8.940423729015E-01
    outer loop
      vertex   3.694444444445E+00  1.250000000000E-01  1.064770659382E+00
      vertex   4.222222222222E+00  0.000000000000E+00  1.329226982167E+00
      vertex   4.222222222222E+00  2.500000000000E-01  1.329226982167E+00
    endloop
  endfacet
  facet normal  -4.479824052981E-01  3.761380145885E-16  8.940423729015E-01
    outer loop
      vertex   3.694444444445E+00  1.250000000000E-01  1.064770659382E+00
      vertex   4.222222222222E+00  2.500000000000E-01  1.329226982167E+00
      vertex   3.166666666667E+00  2.500000000000E-01  8.003143365966E-01
    endloop
  endfacet
  facet normal  -4.479824052981E-01  0.000000000000E+00  8.940423729015E-01
    outer loop
      vertex   3.694444444445E+00  1.250000000000E-01  1.064770659382E+00
      vertex   3.166666666667E+00  2.500000000000E-01  8.003143365966E-01
      vertex   3.166666666667E+00  0.000000000000E+00  8.003143365966E-01
    endloop
  endfacet
  facet normal   0.000000000000E+00 -1.000000000000E+00  0.000000000000E+00
    outer loop
      vertex   3.694444444445E+00  0.000000000000E+00  5.647706593818E-01
      vertex   3.166666666667E+00  0.000000000000E+00 -1.996856634034E-01
      vertex   4.222222222222E+00  0.000000000000E+00  3.292269821670E-01
    endloop
  endfacet
  facet normal   0.000000000000E+00 -1.000000000000E+00  0.000000000000E+00
    outer loop
      vertex   3.694444444445E+00  0.000000000000E+00  5.647706593818E-01
      vertex   4.222222222222E+00  0.000000000000E+00  3.292269821670E-01
      vertex   4.222222222222E+00  0.000000000000E+00  1.329226982167E+00
    endloop
  endfacet
  facet normal   0.000000000000E+00 -1.000000000000E+00  0.000000000000E+00
    outer loop
      vertex   3.694444444445E+00  0.000000000000E+00  5.647706593818E-01
      vertex   4.222222222222E+00  0.000000000000E+00  1.329226982167E+00
      vertex   3.166666666667E+00  0.000000000000E+00  8.003143365966E-01
    endloop
  endfacet
  facet normal   0.000000000000E+00 -1.000000000000E+00  0.000000000000E+00
    outer loop
      vertex   3.694444444445E+00  0.000000000000E+00  5.647706593818E-01
      vertex   3.166666666667E+00  0.000000000000E+00  8.003143365966E-01
      vertex   3.166666666667E+00  0.000000000000E+00 -1.996856634034E-01
    endloop
  endfacet
  facet normal   6.900958822576E-01  0.000000000000E+00 -7.237179514777E-01
    outer loop
      vertex   4.750000000000E+00  1.250000000000E-01  8.324855657740E-01
      vertex   4.222222222222E+00  0.000000000000E+00  3.292269821670E-01
      vertex   4.222222222222E+00  2.500000000000E-01  3.292269821670E-01
    endloop
  endfacet
  facet normal   6.900958822576E-01  0.000000000000E+00 -7.237179514777E-01
    outer loop
      vertex   4.750000000000E+00  1.250000000000E-01  8.324855657740E-01
      vertex   4.222222222222E+00  2.500000000000E-01  3.292269821670E-01
      vertex   5.277777777778E+00  2.500000000000E-01  1.335744149381E+00
    endloop
  endfacet
  facet normal   6.900958822576E-01  0.000000000000E+00 -7.237179514777E-01
    outer loop
      vertex   4.750000000000E+00  1.250000000000E-01  8.324855657740E-01
      vertex   5.277777777778E+00  2.500000000000E-01  1.335744149381E+00
      vertex   5.277777777778E+00  0.000000000000E+00  1.335744149381E+00
    endloop
  endfacet
  facet normal   6.900958822576E-01  0.000000000000E+00 -7.237179514777E-01
    outer loop
      vertex   4.750000000000E+00  1.250000000000E-01  8.324855657740E-01
      vertex   5.277777777778E+00  0.000000000000E+00  1.335744149381E+00
      vertex   4.222222222222E+00  0.000000000000E+00  3.292269821670E-01
    endloop
  endfacet
  facet normal  -6.900958822576E-01 -1.217919157488E-15  7.237179514777E-01
    outer loop
      vertex   4.750000000000E+00  1.250000000000E-01  1.832485565774E+00
      vertex   4.222222222222E+00  0.000000000000E+00  1.329226982167E+00
      vertex   5.277777777778E+00  0.000000000000E+00  2.335744149381E+00
    endloop
  endfacet
  facet normal  -6.900958822576E-01  0.000000000000E+00  7.237179514777E-01
    outer loop
      vertex   4.750000000000E+00  1.250000000000E-01  1.832485565774E+00
      vertex   5.277777777778E+00  0.000000000000E+00  2.335744149381E+00
      vertex   5.277777777778E+00  2.500000000000E-01  2.335744149381E+00
    endloop
  endfacet
  facet normal  -6.900958822576E-01  1.217919157488E-15  7.237179514777E-01
    outer loop
      vertex   4.750000000000E+00  1.250000000000E-01  1.832485565774E+00
      vertex   5.277777777778E+00  2.500000000000E-01  2.335744149381E+00
      vertex   4.222222222222E+00  2.500000000000E-01  1.329226982167E+00
    endloop
  endfacet
  facet normal  -6.900958822576E-01  0.000000000000E+00  7.237179514777E-01
    outer loop
      vertex   4.750000000000E+00  1.250000000000E-01  1.832485565774E+00
      vertex   4.222222222222E+00  2.500000000000E-01  1.329226982167E+00
      vertex   4.222222222222E+00  0.000000000000E+00  1.329226982167E+00
    endloop
  endfacet
  facet normal   0.000000000000E+00 -1.000000000000E+00  0.000000000000E+00
    outer loop
      vertex   4.750000000000E+00  0.000000000000E+00  1.332485565774E+00
      vertex   4.222222222222E+00  0.000000000000E+00  3.292269821670E-01
      vertex   5.277777777778E+00  0.000000000000E+00  1.335744149381E+00
    endloop
  endfacet
  facet normal   0.000000000000E+00 -1.000000000000E+00  0.000000000000E+00
    outer loop
      vertex   4.750000000000E+00  0.000000000000E+00  1.332485565774E+00
      vertex   5.277777777778E+00  0.000000000000E+00  1.335744149381E+00
      vertex   5.277777777778E+00  0.000000000000E+00  2.335744149381E+00
    endloop
  endfacet
  facet normal   0.000000000000E+00 -1.000000000000E+00  0.000000000000E+00
    outer loop
      vertex   4.750000000000E+00  0.000000000000E+00  1.332485565774E+00
      vertex   5.277777777778E+00  0.000000000000E+00  2.335744149381E+00
      vertex   4.222222222222E+00  0.000000000000E+00  1.329226982167E+00
    endloop
  endfacet
  facet normal   0.000000000000E+00 -1.000000000000E+00  0.000000000000E+00
    outer loop
      vertex   4.750000000000E+00  0.000000000000E+00  1.332485565774E+00
      vertex   4.222222222222E+00  0.000000000000E+00  1.329226982167E+00
      vertex   4.222222222222E+00  0.000000000000E+00  3.292269821670E-01
    endloop
  endfacet
  facet normal   4.016874988922E-01  0.000000000000E+00 -9.157768031752E-01
    outer loop
      vertex   5.805555555556E+00  1.250000000000E-01  1.567243500305E+00
      vertex   5.277777777778E+00  0.000000000000E+00  1.335744149381E+00
      vertex   5.277777777778E+00  2.500000000000E-01  1.335744149381E+00
    endloop
  endfacet
  facet normal   4.016874988922E-01  1.444807646957E-15 -9.157768031752E-01
    outer loop
      vertex   5.805555555556E+00  1.250000000000E-01  1.567243500305E+00
      vertex   5.277777777778E+00  2.500000000000E-01  1.335744149381E+00
      vertex   6.333333333333E+00  2.500000000000E-01  1.798742851229E+00
    endloop
  endfacet
  facet normal   4.016874988922E-01  0.000000000000E+00 -9.157768031752E-01
    outer loop
      vertex   5.805555555556E+00  1.250000000000E-01  1.567243500305E+00
      vertex   6.333333333333E+00  2.500000000000E-01  1.798742851229E+00
      vertex   6.333333333333E+00  0.000000000000E+00  1.798742851229E+00
    endloop
  endfacet
  facet normal   4.016874988922E-01 -1.444807646957E-15 -9.157768031752E-01
    outer loop
      vertex   5.805555555556E+00  1.250000000000E-01  1.567243500305E+00
      vertex   6.333333333333E+00  0.000000000000E+00  1.798742851229E+00
      vertex   5.277777777778E+00  0.000000000000E+00  1.335744149381E+00
    endloop
  endfacet
  facet normal  -4.016874988922E-01  1.444807646957E-15  9.157768031752E-01
    outer loop
      vertex   5.805555555556E+00  1.250000000000E-01  2.567243500305E+00
      vertex   5.277777777778E+00  0.000000000000E+00  2.335744149381E+00
      vertex   6.333333333333E+00  0.000000000000E+00  2.798742851229E+00
    endloop
  endfacet
  facet normal  -4.016874988922E-01  0.000000000000E+00  9.157768031752E-01
    outer loop
      vertex   5.805555555556E+00  1.250000000000E-01  2.567243500305E+00
      vertex   6.333333333333E+00  0.000000000000E+00  2.798742851229E+00
      vertex   6.333333333333E+00  2.500000000000E-01  2.798742851229E+00
    endloop
  endfacet
  facet normal  -4.016874988922E-01 -1.444807646957E-15  9.157768031752E-01
    outer loop
      vertex   5.805555555556E+00  1.250000000000E-01  2.567243500305E+00
      vertex   6.333333333333E+00  2.500000000000E-01  2.798742851229E+00
      vertex   5.277777777778E+00  2.500000000000E-01  2.335744149381E+00
    endloop
  endfacet
  facet normal  -4.016874988922E-01  0.000000000000E+00  9.157768031752E-01
    outer loop
      vertex   5.805555555556E+00  1.250000000000E-01  2.567243500305E+00
      vertex   5.277777777778E+00  2.500000000000E-01  2.335744149381E+00
      vertex   5.277777777778E+00  0.000000000000E+00  2.335744149381E+00
    endloop
  endfacet
  facet normal   0.000000000000E+00 -1.000000000000E+00  0.000000000000E+00
    outer loop
      vertex   5.805555555556E+00  0.000000000000E+00  2.067243500305E+00
      vertex   5.277777777778E+00  0.000000000000E+00  1.335744149381E+00
      vertex   6.333333333333E+00  0.000000000000E+00  1.798742851229E+00
    endloop
  endfacet
  facet normal   0.000000000000E+00 -1.000000000000E+00  0.000000000000E+00
    outer loop
      vertex   5.805555555556E+00  0.000000000000E+00  2.067243500305E+00
      vertex   6.333333333333E+00  0.000000000000E+00  1.798742851229E+00
      vertex   6.333333333333E+00  0.000000000000E+00  2.798742851229E+00
    endloop
  endfacet
  facet normal   0.000000000000E+00 -1.000000000000E+00  0.000000000000E+00
    outer loop
      vertex   5.805555555556E+00  0.000000000000E+00  2.067243500305E+00
      vertex   6.333333333333E+00  0.000000000000E+00  2.798742851229E+00
      vertex   5.277777777778E+00  0.000000000000E+00  2.335744149381E+00
    endloop
  endfacet
  facet normal   0.000000000000E+00 -1.000000000000E+00  0.000000000000E+00
    outer loop
      vertex   5.805555555556E+00  0.000000000000E+00  2.067243500305E+00
      vertex   5.277777777778E+00  0.000000000000E+00  2.335744149381E+00
      vertex   5.277777777778E+00  0.000000000000E+00  1.335744149381E+00
    endloop
  endfacet
  facet normal   1.000000000000E+00  0.000000000000E+00  0.000000000000E+00
    outer loop
      vertex   6.333333333333E+00  1.250000000000E-01  2.298742851229E+00
      vertex   6.333333333333E+00  0.000000000000E+00  1.798742851229E+00
      vertex   6.333333333333E+00  2.500000000000E-01  1.798742851229E+00
    endloop
  endfacet
  facet normal   1.000000000000E+00  0.000000000000E+00  0.000000000000E+00
    outer loop
      vertex   6.333333333333E+00  1.250000000000E-01  2.298742851229E+00
      vertex   6.333333333333E+00  2.500000000000E-01  1.798742851229E+00
      vertex   6.333333333333E+00  2.500000000000E-01  2.798742851229E+00
    endloop
  endfacet
  facet normal   1.000000000000E+00  0.000000000000E+00  0.000000000000E+00
    outer loop
      vertex   6.333333333333E+00  1.250000000000E-01  2.298742851229E+00
      vertex   6.333333333333E+00  2.500000000000E-01  2.798742851229E+00
      vertex   6.333333333333E+00  0.000000000000E+00  2.798742851229E+00
    endloop
  endfacet
  facet normal   1.000000000000E+00  0.000000000000E+00  0.000000000000E+00
    outer loop
      vertex   6.333333333333E+00  1.250000000000E-01  2.298742851229E+00
      vertex   6.333333333333E+00  0.000000000000E+00  2.798742851229E+00
      vertex   6.333333333333E+00  0.000000000000E+00  1.798742851229E+00
    endloop
  endfacet
  facet normal  -4.331397550050E-01  0.000000000000E+00 -9.013267735035E-01
    outer loop
      vertex   5.277777777780E-01  3.750000000000E-01  1.546372188108E+00
      vertex   0.000000000000E+00  2.500000000000E-01  1.800000000000E+00
      vertex   0.000000000000E+00  5.000000000000E-01  1.800000000000E+00
    endloop
  endfacet
  facet normal  -4.331397550050E-01 -9.480066978830E-16 -9.013267735035E-01
    outer loop
      vertex   5.277777777780E-01  3.750000000000E-01  1.546372188108E+00
      vertex   0.000000000000E+00  5.000000000000E-01  1.800000000000E+00
      vertex   1.055555555556E+00  5.000000000000E-01  1.292744376215E+00
    endloop
  endfacet
  facet normal  -4.331397550050E-01  0.000000000000E+00 -9.013267735035E-01
    outer loop
      vertex   5.277777777780E-01  3.750000000000E-01  1.546372188108E+00
      vertex   1.055555555556E+00  5.000000000000E-01  1.292744376215E+00
      vertex   1.055555555556E+00  2.500000000000E-01  1.292744376215E+00
    endloop
  endfacet
  facet normal  -4.331397550050E-01  9.480066978830E-16 -9.013267735035E-01
    outer loop
      vertex   5.277777777780E-01  3.750000000000E-01  1.546372188108E+00
      vertex   1.055555555556E+00  2.500000000000E-01  1.292744376215E+00
      vertex   0.000000000000E+00  2.500000000000E-01  1.800000000000E+00
    endloop
  endfacet
  facet normal   4.331397550050E-01 -1.706412056189E-15  9.013267735035E-01
    outer loop
      vertex   5.277777777780E-01  3.750000000000E-01  2.546372188108E+00
      vertex   0.000000000000E+00  2.500000000000E-01  2.800000000000E+00
      vertex   1.055555555556E+00  2.500000000000E-01  2.292744376215E+00
    endloop
  endfacet
  facet normal   4.331397550050E-01  0.000000000000E+00  9.013267735035E-01
    outer loop
      vertex   5.277777777780E-01  3.750000000000E-01  2.546372188108E+00
      vertex   1.055555555556E+00  2.500000000000E-01  2.292744376215E+00
      vertex   1.055555555556E+00  5.000000000000E-01  2.292744376215E+00
    endloop
  endfacet
  facet normal   4.331397550050E-01  1.706412056189E-15  9.013267735035E-01
    outer loop
      vertex   5.277777777780E-01  3.750000000000E-01  2.546372188108E+00
      vertex   1.055555555556E+00  5.000000000000E-01  2.292744376215E+00
      vertex   0.000000000000E+00  5.000000000000E-01  2.800000000000E+00
    endloop
  endfacet
  facet normal   4.331397550050E-01  0.000000000000E+00  9.013267735035E-01
    outer loop
      vertex   5.277777777780E-01  3.750000000000E-01  2.546372188108E+00
      vertex   0.000000000000E+00  5.000000000000E-01  2.800000000000E+00
      vertex   0.000000000000E+00  2.500000000000E-01  2.800000000000E+00
    endloop
  endfacet
  facet normal  -1.000000000000E+00  0.000000000000E+00  0.000000000000E+00
    outer loop
      vertex   0.000000000000E+00  3.750000000000E-01  2.300000000000E+00
      vertex   0.000000000000E+00  2.500000000000E-01  1.800000000000E+00
      vertex   0.000000000000E+00  2.500000000000E-01  2.800000000000E+00
    endloop
  endfacet
  facet normal  -1.000000000000E+00  0.000000000000E+00  0.000000000000E+00
    outer loop
      vertex   0.000000000000E+00  3.750000000000E-01  2.300000000000E+00
      vertex   0.000000000000E+00  2.500000000000E-01  2.800000000000E+00
      vertex   0.000000000000E+00  5.000000000000E-01  2.800000000000E+00
    endloop
  endfacet
  facet normal  -1.000000000000E+00  0.000000000000E+00  0.000000000000E+00
    outer loop
      vertex   0.000000000000E+00  3.750000000000E-01  2.300000000000E+00
      vertex   0.000000000000E+00  5.000000000000E-01  2.800000000000E+00
      vertex   0.000000000000E+00  5.000000000000E-01  1.800000000000E+00
    endloop
  endfacet
  facet normal  -1.000000000000E+00  0.000000000000E+00  0.000000000000E+00
    outer loop
      vertex   0.000000000000E+00  3.750000000000E-01  2.300000000000E+00
      vertex   0.000000000000E+00  5.000000000000E-01  1.800000000000E+00
      vertex   0.000000000000E+00  2.500000000000E-01  1.800000000000E+00
    endloop
  endfacet
  facet normal  -6.903231569280E-01  0.000000000000E+00 -7.235011672478E-01
    outer loop
      vertex   1.583333333334E+00  3.750000000000E-01  7.891692083991E-01
      vertex   1.055555555556E+00  2.500000000000E-01  1.292744376215E+00
      vertex   1.055555555556E+00  5.000000000000E-01  1.292744376215E+00
    endloop
  endfacet
  facet normal  -6.903231569280E-01  0.000000000000E+00 -7.235011672478E-01
    outer loop
      vertex   1.583333333334E+00  3.750000000000E-01  7.891692083991E-01
      vertex   1.055555555556E+00  5.000000000000E-01  1.292744376215E+00
      vertex   2.111111111111E+00  5.000000000000E-01  2.855940405832E-01
    endloop
  endfacet
  facet normal  -6.903231569280E-01  0.000000000000E+00 -7.235011672478E-01
    outer loop
      vertex   1.583333333334E+00  3.750000000000E-01  7.891692083991E-01
      vertex   2.111111111111E+00  5.000000000000E-01  2.855940405832E-01
      vertex   2.111111111111E+00  2.500000000000E-01  2.855940405832E-01
    endloop
  endfacet
  facet normal  -6.903231569280E-01  0.000000000000E+00 -7.235011672478E-01
    outer loop
      vertex   1.583333333334E+00  3.750000000000E-01  7.891692083991E-01
      vertex   2.111111111111E+00  2.500000000000E-01  2.855940405832E-01
      vertex   1.055555555556E+00  2.500000000000E-01  1.292744376215E+00
    endloop
  endfacet
  facet normal   6.903231569281E-01 -6.087771695157E-16  7.235011672477E-01
    outer loop
      vertex   1.583333333334E+00  3.750000000000E-01  1.789169208399E+00
      vertex   1.055555555556E+00  2.500000000000E-01  2.292744376215E+00
      vertex   2.111111111111E+00  2.500000000000E-01  1.285594040583E+00
    endloop
  endfacet
  facet normal   6.903231569281E-01  0.000000000000E+00  7.235011672477E-01
    outer loop
      vertex   1.583333333334E+00  3.750000000000E-01  1.789169208399E+00
      vertex   2.111111111111E+00  2.500000000000E-01  1.285594040583E+00
      vertex   2.111111111111E+00  5.000000000000E-01  1.285594040583E+00
    endloop
  endfacet
  facet normal   6.903231569281E-01  6.087771695157E-16  7.235011672477E-01
    outer loop
      vertex   1.583333333334E+00  3.750000000000E-01  1.789169208399E+00
      vertex   2.111111111111E+00  5.000000000000E-01  1.285594040583E+00
      vertex   1.055555555556E+00  5.000000000000E-01  2.292744376215E+00
    endloop
  endfacet
  facet normal   6.903231569281E-01  0.000000000000E+00  7.235011672477E-01
    outer loop
      vertex   1.583333333334E+00  3.750000000000E-01  1.789169208399E+00
      vertex   1.055555555556E+00  5.000000000000E-01  2.292744376215E+00
      vertex   1.055555555556E+00  2.500000000000E-01  2.292744376215E+00
    endloop
  endfacet
  facet normal  -4.177096244680E-01  0.000000000000E+00 -9.085805796003E-01
    outer loop
      vertex   2.638888888889E+00  3.750000000000E-01  4.295418858990E-02
      vertex   2.111111111111E+00  2.500000000000E-01  2.855940405832E-01
      vertex   2.111111111111E+00  5.000000000000E-01  2.855940405832E-01
    endloop
  endfacet
  facet normal  -4.177096244680E-01 -7.645089442351E-16 -9.085805796003E-01
    outer loop
      vertex   2.638888888889E+00  3.750000000000E-01  4.295418858990E-02
      vertex   2.111111111111E+00  5.000000000000E-01  2.855940405832E-01
      vertex   3.166666666667E+00  5.000000000000E-01 -1.996856634034E-01
    endloop
  endfacet
  facet normal  -4.177096244680E-01  0.000000000000E+00 -9.085805796003E-01
    outer loop
      vertex   2.638888888889E+00  3.750000000000E-01  4.295418858990E-02
      vertex   3.166666666667E+00  5.000000000000E-01 -1.996856634034E-01
      vertex   3.166666666667E+00  2.500000000000E-01 -1.996856634034E-01
    endloop
  endfacet
  facet normal  -4.177096244680E-01  7.645089442351E-16 -9.085805796003E-01
    outer loop
      vertex   2.638888888889E+00  3.750000000000E-01  4.295418858990E-02
      vertex   3.166666666667E+00  2.500000000000E-01 -1.996856634034E-01
      vertex   2.111111111111E+00  2.500000000000E-01  2.855940405832E-01
    endloop
  endfacet
  facet normal   4.177096244679E-01 -3.822544721176E-16  9.085805796004E-01
    outer loop
      vertex   2.638888888889E+00  3.750000000000E-01  1.042954188590E+00
      vertex   2.111111111111E+00  2.500000000000E-01  1.285594040583E+00
      vertex   3.166666666667E+00  2.500000000000E-01  8.003143365966E-01
    endloop
  endfacet
  facet normal   4.177096244679E-01  0.000000000000E+00  9.085805796004E-01
    outer loop
      vertex   2.638888888889E+00  3.750000000000E-01  1.042954188590E+00
      vertex   3.166666666667E+00  2.500000000000E-01  8.003143365966E-01
      vertex   3.166666666667E+00  5.000000000000E-01  8.003143365966E-01
    endloop
  endfacet
  facet normal   4.177096244679E-01  3.822544721176E-16  9.085805796004E-01
    outer loop
      vertex   2.638888888889E+00  3.750000000000E-01  1.042954188590E+00
      vertex   3.166666666667E+00  5.000000000000E-01  8.003143365966E-01
      vertex   2.111111111111E+00  5.000000000000E-01  1.285594040583E+00
    endloop
  endfacet
  facet normal   4.177096244679E-01  0.000000000000E+00  9.085805796004E-01
    outer loop
      vertex   2.638888888889E+00  3.750000000000E-01  1.042954188590E+00
      vertex   2.111111111111E+00  5.000000000000E-01  1.285594040583E+00
      vertex   2.111111111111E+00  2.500000000000E-01  1.285594040583E+00
    endloop
  endfacet
  facet normal   4.479824052981E-01  0.000000000000E+00 -8.940423729015E-01
    outer loop
      vertex   3.694444444445E+00  3.750000000000E-01  6.477065938180E-02
      vertex   3.166666666667E+00  2.500000000000E-01 -1.996856634034E-01
      vertex   3.166666666667E+00  5.000000000000E-01 -1.996856634034E-01
    endloop
  endfacet
  facet normal   4.479824052981E-01  1.692621065648E-15 -8.940423729015E-01
    outer loop
      vertex   3.694444444445E+00  3.750000000000E-01  6.477065938180E-02
      vertex   3.166666666667E+00  5.000000000000E-01 -1.996856634034E-01
      vertex   4.222222222222E+00  5.000000000000E-01  3.292269821670E-01
    endloop
  endfacet
  facet normal   4.479824052981E-01  0.000000000000E+00 -8.940423729015E-01
    outer loop
      vertex   3.694444444445E+00  3.750000000000E-01  6.477065938180E-02
      vertex   4.222222222222E+00  5.000000000000E-01  3.292269821670E-01
      vertex   4.222222222222E+00  2.500000000000E-01  3.292269821670E-01
    endloop
  endfacet
  facet normal   4.479824052981E-01 -1.692621065648E-15 -8.940423729015E-01
    outer loop
      vertex   3.694444444445E+00  3.750000000000E-01  6.477065938180E-02
      vertex   4.222222222222E+00  2.500000000000E-01  3.292269821670E-01
      vertex   3.166666666667E+00  2.500000000000E-01 -1.996856634034E-01
    endloop
  endfacet
  facet normal  -4.479824052981E-01 -3.761380145885E-16  8.940423729015E-01
    outer loop
      vertex   3.694444444445E+00  3.750000000000E-01  1.064770659382E+00
      vertex   3.166666666667E+00  2.500000000000E-01  8.003143365966E-01
      vertex   4.222222222222E+00  2.500000000000E-01  1.329226982167E+00
    endloop
  endfacet
  facet normal  -4.479824052981E-01  0.000000000000E+00  8.940423729015E-01
    outer loop
      vertex   3.694444444445E+00  3.750000000000E-01  1.064770659382E+00
      vertex   4.222222222222E+00  2.500000000000E-01  1.329226982167E+00
      vertex   4.222222222222E+00  5.000000000000E-01  1.329226982167E+00
    endloop
  endfacet
  facet normal  -4.479824052981E-01  3.761380145885E-16  8.940423729015E-01
    outer loop
      vertex   3.694444444445E+00  3.750000000000E-01  1.064770659382E+00
      vertex   4.222222222222E+00  5.000000000000E-01  1.329226982167E+00
      vertex   3.166666666667E+00  5.000000000000E-01  8.003143365966E-01
    endloop
  endfacet
  facet normal  -4.479824052981E-01  0.000000000000E+00  8.940423729015E-01
    outer loop
      vertex   3.694444444445E+00  3.750000000000E-01  1.064770659382E+00
      vertex   3.166666666667E+00  5.000000000000E-01  8.003143365966E-01
      vertex   3.166666666667E+00  2.500000000000E-01  8.003143365966E-01
    endloop
  endfacet
  facet normal   6.900958822576E-01  0.000000000000E+00 -7.237179514777E-01
    outer loop
      vertex   4.750000000000E+00  3.750000000000E-01  8.324855657740E-01
      vertex   4.222222222222E+00  2.500000000000E-01  3.292269821670E-01
      vertex   4.222222222222E+00  5.000000000000E-01  3.292269821670E-01
    endloop
  endfacet
  facet normal   6.900958822576E-01  0.000000000000E+00 -7.237179514777E-01
    outer loop
      vertex   4.750000000000E+00  3.750000000000E-01  8.324855657740E-01
      vertex   4.222222222222E+00  5.000000000000E-01  3.292269821670E-01
      vertex   5.277777777778E+00  5.000000000000E-01  1.335744149381E+00
    endloop
  endfacet
  facet normal   6.900958822576E-01  0.000000000000E+00 -7.237179514777E-01
    outer loop
      vertex   4.750000000000E+00  3.750000000000E-01  8.324855657740E-01
      vertex   5.277777777778E+00  5.000000000000E-01  1.335744149381E+00
      vertex   5.277777777778E+00  2.500000000000E-01  1.335744149381E+00
    endloop
  endfacet
  facet normal   6.900958822576E-01  0.000000000000E+00 -7.237179514777E-01
    outer loop
      vertex   4.750000000000E+00  3.750000000000E-01  8.324855657740E-01
      vertex   5.277777777778E+00  2.500000000000E-01  1.335744149381E+00
      vertex   4.222222222222E+00  2.500000000000E-01  3.292269821670E-01
    endloop
  endfacet
  facet normal  -6.900958822576E-01 -1.217919157488E-15  7.237179514777E-01
    outer loop
      vertex   4.750000000000E+00  3.750000000000E-01  1.832485565774E+00
      vertex   4.222222222222E+00  2.500000000000E-01  1.329226982167E+00
      vertex   5.277777777778E+00  2.500000000000E-01  2.335744149381E+00
    endloop
  endfacet
  facet normal  -6.900958822576E-01  0.000000000000E+00  7.237179514777E-01
    outer loop
      vertex   4.750000000000E+00  3.750000000000E-01  1.832485565774E+00
      vertex   5.277777777778E+00  2.500000000000E-01  2.335744149381E+00
      vertex   5.277777777778E+00  5.000000000000E-01  2.335744149381E+00
    endloop
  endfacet
  facet normal  -6.900958822576E-01  1.217919157488E-15  7.237179514777E-01
    outer loop
      vertex   4.750000000000E+00  3.750000000000E-01  1.832485565774E+00
      vertex   5.277777777778E+00  5.000000000000E-01  2.335744149381E+00
      vertex   4.222222222222E+00  5.000000000000E-01  1.329226982167E+00
    endloop
  endfacet
  facet normal  -6.900958822576E-01  0.000000000000E+00  7.237179514777E-01
    outer loop
      vertex   4.750000000000E+00  3.750000000000E-01  1.832485565774E+00
      vertex   4.222222222222E+00  5.000000000000E-01  1.329226982167E+00
      vertex   4.222222222222E+00  2.500000000000E-01  1.329226982167E+00
    endloop
  endfacet
  facet normal   4.016874988922E-01  0.000000000000E+00 -9.157768031752E-01
    outer loop
      vertex   5.805555555556E+00  3.750000000000E-01  1.567243500305E+00
      vertex   5.277777777778E+00  2.500000000000E-01  1.335744149381E+00
      vertex   5.277777777778E+00  5.000000000000E-01  1.335744149381E+00
    endloop
  endfacet
  facet normal   4.016874988922E-01  1.444807646957E-15 -9.157768031752E-01
    outer loop
      vertex   5.805555555556E+00  3.750000000000E-01  1.567243500305E+00
      vertex   5.277777777778E+00  5.000000000000E-01  1.335744149381E+00
      vertex   6.333333333333E+00  5.000000000000E-01  1.798742851229E+00
    endloop
  endfacet
  facet normal   4.016874988922E-01  0.000000000000E+00 -9.157768031752E-01
    outer loop
      vertex   5.805555555556E+00  3.750000000000E-01  1.567243500305E+00
      vertex   6.333333333333E+00  5.000000000000E-01  1.798742851229E+00
      vertex   6.333333333333E+00  2.500000000000E-01  1.798742851229E+00
    endloop
  endfacet
  facet normal   4.016874988922E-01 -1.444807646957E-15 -9.157768031752E-01
    outer loop
      vertex   5.805555555556E+00  3.750000000000E-01  1.567243500305E+00
      vertex   6.333333333333E+00  2.500000000000E-01  1.798742851229E+00
      vertex   5.277777777778E+00  2.500000000000E-01  1.335744149381E+00
    endloop
  endfacet
  facet normal  -4.016874988922E-01  1.444807646957E-15  9.157768031752E-01
    outer loop
      vertex   5.805555555556E+00  3.750000000000E-01  2.567243500305E+00
      vertex   5.277777777778E+00  2.500000000000E-01  2.335744149381E+00
      vertex   6.333333333333E+00  2.500000000000E-01  2.798742851229E+00
    endloop
  endfacet
  facet normal  -4.016874988922E-01  0.000000000000E+00  9.157768031752E-01
    outer loop
      vertex   5.805555555556E+00  3.750000000000E-01  2.567243500305E+00
      vertex   6.333333333333E+00  2.500000000000E-01  2.798742851229E+00
      vertex   6.333333333333E+00  5.000000000000E-01  2.798742851229E+00
    endloop
  endfacet
  facet normal  -4.016874988922E-01 -1.444807646957E-15  9.157768031752E-01
    outer loop
      vertex   5.805555555556E+00  3.750000000000E-01  2.567243500305E+00
      vertex   6.333333333333E+00  5.000000000000E-01  2.798742851229E+00
      vertex   5.277777777778E+00  5.000000000000E-01  2.335744149381E+00
    endloop
  endfacet
  facet normal  -4.016874988922E-01  0.000000000000E+00  9.157768031752E-01
    outer loop
      vertex   5.805555555556E+00  3.750000000000E-01  2.567243500305E+00
      vertex   5.277777777778E+00  5.000000000000E-01  2.335744149381E+00
      vertex   5.277777777778E+00  2.500000000000E-01  2.335744149381E+00
    endloop
  endfacet
  facet normal   1.000000000000E+00  0.000000000000E+00  0.000000000000E+00
    outer loop
      vertex   6.333333333333E+00  3.750000000000E-01  2.298742851229E+00
      vertex   6.333333333333E+00  2.500000000000E-01  1.798742851229E+00
      vertex   6.333333333333E+00  5.000000000000E-01  1.798742851229E+00
    endloop
  endfacet
  facet normal   1.000000000000E+00  0.000000000000E+00  0.000000000000E+00
    outer loop
      vertex   6.333333333333E+00  3.750000000000E-01  2.298742851229E+00
      vertex   6.333333333333E+00  5.000000000000E-01  1.798742851229E+00
      vertex   6.333333333333E+00  5.000000000000E-01  2.798742851229E+00
    endloop
  endfacet
  facet normal   1.000000000000E+00  0.000000000000E+00  0.000000000000E+00
    outer loop
      vertex   6.333333333333E+00  3.750000000000E-01  2.298742851229E+00
      vertex   6.333333333333E+00  5.000000000000E-01  2.798742851229E+00
      vertex   6.333333333333E+00  2.500000000000E-01  2.798742851229E+00
    endloop
  endfacet
  facet normal   1.000000000000E+00  0.000000000000E+00  0.000000000000E+00
    outer loop
      vertex   6.333333333333E+00  3.750000000000E-01  2.298742851229E+00
      vertex   6.333333333333E+00  2.500000000000E-01  2.798742851229E+00
      vertex   6.333333333333E+00  2.500000000000E-01  1.798742851229E+00
    endloop
  endfacet
  facet normal  -4.331397550050E-01  0.000000000000E+00 -9.013267735035E-01
    outer loop
      vertex   5.277777777780E-01  6.250000000000E-01  1.546372188108E+00
      vertex   0.000000000000E+00  5.000000000000E-01  1.800000000000E+00
      vertex   0.000000000000E+00  7.500000000000E-01  1.800000000000E+00
    endloop
  endfacet
  facet normal  -4.331397550050E-01 -9.480066978830E-16 -9.013267735035E-01
    outer loop
      vertex   5.277777777780E-01  6.250000000000E-01  1.546372188108E+00
      vertex   0.000000000000E+00  7.500000000000E-01  1.800000000000E+00
      vertex   1.055555555556E+00  7.500000000000E-01  1.292744376215E+00
    endloop
  endfacet
  facet normal  -4.331397550050E-01  0.000000000000E+00 -9.013267735035E-01
    outer loop
      vertex   5.277777777780E-01  6.250000000000E-01  1.546372188108E+00
      vertex   1.055555555556E+00  7.500000000000E-01  1.292744376215E+00
      vertex   1.055555555556E+00  5.000000000000E-01  1.292744376215E+00
    endloop
  endfacet
  facet normal  -4.331397550050E-01  9.480066978830E-16 -9.013267735035E-01
    outer loop
      vertex   5.277777777780E-01  6.250000000000E-01  1.546372188108E+00
      vertex   1.055555555556E+00  5.000000000000E-01  1.292744376215E+00
      vertex   0.000000000000E+00  5.000000000000E-01  1.800000000000E+00
    endloop
  endfacet
  facet normal   4.331397550050E-01 -1.706412056189E-15  9.013267735035E-01
    outer loop
      vertex   5.277777777780E-01  6.250000000000E-01  2.546372188108E+00
      vertex   0.000000000000E+00  5.000000000000E-01  2.800000000000E+00
      vertex   1.055555555556E+00  5.000000000000E-01  2.292744376215E+00
    endloop
  endfacet
  facet normal   4.331397550050E-01  0.000000000000E+00  9.013267735035E-01
    outer loop
      vertex   5.277777777780E-01  6.250000000000E-01  2.546372188108E+00
      vertex   1.055555555556E+00  5.000000000000E-01  2.292744376215E+00
      vertex   1.055555555556E+00  7.500000000000E-01  2.292744376215E+00
    endloop
  endfacet
  facet normal   4.331397550050E-01  1.706412056189E-15  9.013267735035E-01
    outer loop
      vertex   5.277777777780E-01  6.250000000000E-01  2.546372188108E+00
      vertex   1.055555555556E+00  7.500000000000E-01  2.292744376215E+00
      vertex   0.000000000000E+00  7.500000000000E-01  2.800000000000E+00
    endloop
  endfacet
  facet normal   4.331397550050E-01  0.000000000000E+00  9.013267735035E-01
    outer loop
      vertex   5.277777777780E-01  6.250000000000E-01  2.546372188108E+00
      vertex   0.000000000000E+00  7.500000000000E-01  2.800000000000E+00
      vertex   0.000000000000E+00  5.000000000000E-01  2.800000000000E+00
    endloop
  endfacet
  facet normal  -1.000000000000E+00  0.000000000000E+00  0.000000000000E+00
    outer loop
      vertex   0.000000000000E+00  6.250000000000E-01  2.300000000000E+00
      vertex   0.000000000000E+00  5.000000000000E-01  1.800000000000E+00
      vertex   0.000000000000E+00  5.000000000000E-01  2.800000000000E+00
    endloop
  endfacet
  facet normal  -1.000000000000E+00  0.000000000000E+00  0.000000000000E+00
    outer loop
      vertex   0.000000000000E+00  6.250000000000E-01  2.300000000000E+00
      vertex   0.000000000000E+00  5.000000000000E-01  2.800000000000E+00
      vertex   0.000000000000E+00  7.500000000000E-01  2.800000000000E+00
    endloop
  endfacet
  facet normal  -1.000000000000E+00  0.000000000000E+00  0.000000000000E+00
    outer loop
      vertex   0.000000000000E+00  6.250000000000E-01  2.300000000000E+00
      vertex   0.000000000000E+00  7.500000000000E-01  2.800000000000E+00
      vertex   0.000000000000E+00  7.500000000000E-01  1.800000000000E+00
    endloop
  endfacet
  facet normal  -1.000000000000E+00  0.000000000000E+00  0.000000000000E+00
    outer loop
      vertex   0.000000000000E+00  6.250000000000E-01  2.300000000000E+00
      vertex   0.000000000000E+00  7.500000000000E-01  1.800000000000E+00
      vertex   0.000000000000E+00  5.000000000000E-01  1.800000000000E+00
    endloop
  endfacet
  facet normal  -6.903231569280E-01  0.000000000000E+00 -7.235011672478E-01
    outer loop
      vertex   1.583333333334E+00  6.250000000000E-01  7.891692083991E-01
      vertex   1.055555555556E+00  5.000000000000E-01  1.292744376215E+00
      vertex   1.055555555556E+00  7.500000000000E-01  1.292744376215E+00
    endloop
  endfacet
  facet normal  -6.903231569280E-01  0.000000000000E+00 -7.235011672478E-01
    outer loop
      vertex   1.583333333334E+00  6.250000000000E-01  7.891692083991E-01
      vertex   1.055555555556E+00  7.500000000000E-01  1.292744376215E+00
      vertex   2.111111111111E+00  7.500000000000E-01  2.855940405832E-01
    endloop
  endfacet
  facet normal  -6.903231569280E-01  0.000000000000E+00 -7.235011672478E-01
    outer loop
      vertex   1.583333333334E+00  6.250000000000E-01  7.891692083991E-01
      vertex   2.111111111111E+00  7.500000000000E-01  2.855940405832E-01
      vertex   2.111111111111E+00  5.000000000000E-01  2.855940405832E-01
    endloop
  endfacet
  facet normal  -6.903231569280E-01  0.000000000000E+00 -7.235011672478E-01
    outer loop
      vertex   1.583333333334E+00  6.250000000000E-01  7.891692083991E-01
      vertex   2.111111111111E+00  5.000000000000E-01  2.855940405832E-01
      vertex   1.055555555556E+00  5.000000000000E-01  1.292744376215E+00
    endloop
  endfacet
  facet normal   6.903231569281E-01 -6.087771695157E-16  7.235011672477E-01
    outer loop
      vertex   1.583333333334E+00  6.250000000000E-01  1.789169208399E+00
      vertex   1.055555555556E+00  5.000000000000E-01  2.292744376215E+00
      vertex   2.111111111111E+00  5.000000000000E-01  1.285594040583E+00
    endloop
  endfacet
  facet normal   6.903231569281E-01  0.000000000000E+00  7.235011672477E-01
    outer loop
      vertex   1.583333333334E+00  6.250000000000E-01  1.789169208399E+00
      vertex   2.111111111111E+00  5.000000000000E-01  1.285594040583E+00
      vertex   2.111111111111E+00  7.500000000000E-01  1.285594040583E+00
    endloop
  endfacet
  facet normal   6.903231569281E-01  6.087771695157E-16  7.235011672477E-01
    outer loop
      vertex   1.583333333334E+00  6.250000000000E-01  1.789169208399E+00
      vertex   2.111111111111E+00  7.500000000000E-01  1.285594040583E+00
      vertex   1.055555555556E+00  7.500000000000E-01  2.292744376215E+00
    endloop
  endfacet
  facet normal   6.903231569281E-01  0.000000000000E+00  7.235011672477E-01
    outer loop
      vertex   1.583333333334E+00  6.250000000000E-01  1.789169208399E+00
      vertex   1.055555555556E+00  7.500000000000E-01  2.292744376215E+00
      vertex   1.055555555556E+00  5.000000000000E-01  2.292744376215E+00
    endloop
  endfacet
  facet normal  -4.177096244680E-01  0.000000000000E+00 -9.085805796003E-01
    outer loop
      vertex   2.638888888889E+00  6.250000000000E-01  4.295418858990E-02
      vertex   2.111111111111E+00  5.000000000000E-01  2.855940405832E-01
      vertex   2.111111111111E+00  7.500000000000E-01  2.855940405832E-01
    endloop
  endfacet
  facet normal  -4.177096244680E-01 -7.645089442351E-16 -9.085805796003E-01
    outer loop
      vertex   2.638888888889E+00  6.250000000000E-01  4.295418858990E-02
      vertex   2.111111111111E+00  7.500000000000E-01  2.855940405832E-01
      vertex   3.166666666667E+00  7.500000000000E-01 -1.996856634034E-01
    endloop
  endfacet
  facet normal  -4.177096244680E-01  0.000000000000E+00 -9.085805796003E-01
    outer loop
      vertex   2.638888888889E+00  6.250000000000E-01  4.295418858990E-02
      vertex   3.166666666667E+00  7.500000000000E-01 -1.996856634034E-01
      vertex   3.166666666667E+00  5.000000000000E-01 -1.996856634034E-01
    endloop
  endfacet
  facet normal  -4.177096244680E-01  7.645089442351E-16 -9.085805796003E-01
    outer loop
      vertex   2.638888888889E+00  6.250000000000E-01  4.295418858990E-02
      vertex   3.166666666667E+00  5.000000000000E-01 -1.996856634034E-01
      vertex   2.111111111111E+00  5.000000000000E-01  2.855940405832E-01
    endloop
  endfacet
  facet normal   4.177096244679E-01 -3.822544721176E-16  9.085805796004E-01
    outer loop
      vertex   2.638888888889E+00  6.250000000000E-01  1.042954188590E+00
      vertex   2.111111111111E+00  5.000000000000E-01  1.285594040583E+00
      vertex   3.166666666667E+00  5.000000000000E-01  8.003143365966E-01
    endloop
  endfacet
  facet normal   4.177096244679E-01  0.000000000000E+00  9.085805796004E-01
    outer loop
      vertex   2.638888888889E+00  6.250000000000E-01  1.042954188590E+00
      vertex   3.166666666667E+00  5.000000000000E-01  8.003143365966E-01
      vertex   3.166666666667E+00  7.500000000000E-01  8.003143365966E-01
    endloop
  endfacet
  facet normal   4.177096244679E-01  3.822544721176E-16  9.085805796004E-01
    outer loop
      vertex   2.638888888889E+00  6.250000000000E-01  1.042954188590E+00
      vertex   3.166666666667E+00  7.500000000000E-01  8.003143365966E-01
      vertex   2.111111111111E+00  7.500000000000E-01  1.285594040583E+00
    endloop
  endfacet
  facet normal   4.177096244679E-01  0.000000000000E+00  9.085805796004E-01
    outer loop
      vertex   2.638888888889E+00  6.250000000000E-01  1.042954188590E+00
      vertex   2.111111111111E+00  7.500000000000E-01  1.285594040583E+00
      vertex   2.111111111111E+00  5.000000000000E-01  1.285594040583E+00
    endloop
  endfacet
  facet normal   4.479824052981E-01  0.000000000000E+00 -8.940423729015E-01
    outer loop
      vertex   3.694444444445E+00  6.250000000000E-01  6.477065938180E-02
      vertex   3.166666666667E+00  5.000000000000E-01 -1.996856634034E-01
      vertex   3.166666666667E+00  7.500000000000E-01 -1.996856634034E-01
    endloop
  endfacet
  facet normal   4.479824052981E-01  1.692621065648E-15 -8.940423729015E-01
    outer loop
      vertex   3.694444444445E+00  6.250000000000E-01  6.477065938180E-02
      vertex   3.166666666667E+00  7.500000000000E-01 -1.996856634034E-01
      vertex   4.222222222222E+00  7.500000000000E-01  3.292269821670E-01
    endloop
  endfacet
  facet normal   4.479824052981E-01  0.000000000000E+00 -8.940423729015E-01
    outer loop
      vertex   3.694444444445E+00  6.250000000000E-01  6.477065938180E-02
      vertex   4.222222222222E+00  7.500000000000E-01  3.292269821670E-01
      vertex   4.222222222222E+00  5.000000000000E-01  3.292269821670E-01
    endloop
  endfacet
  facet normal   4.479824052981E-01 -1.692621065648E-15 -8.940423729015E-01
    outer loop
      vertex   3.694444444445E+00  6.250000000000E-01  6.477065938180E-02
      vertex   4.222222222222E+00  5.000000000000E-01  3.292269821670E-01
      vertex   3.166666666667E+00  5.000000000000E-01 -1.996856634034E-01
    endloop
  endfacet
  facet normal  -4.479824052981E-01 -3.761380145885E-16  8.940423729015E-01
    outer loop
      vertex   3.694444444445E+00  6.250000000000E-01  1.064770659382E+00
      vertex   3.166666666667E+00  5.000000000000E-01  8.003143365966E-01
      vertex   4.222222222222E+00  5.000000000000E-01  1.329226982167E+00
    endloop
  endfacet
  facet normal  -4.479824052981E-01  0.000000000000E+00  8.940423729015E-01
    outer loop
      vertex   3.694444444445E+00  6.250000000000E-01  1.064770659382E+00
      vertex   4.222222222222E+00  5.000000000000E-01  1.329226982167E+00
      vertex   4.222222222222E+00  7.500000000000E-01  1.329226982167E+00
    endloop
  endfacet
  facet normal  -4.479824052981E-01  3.761380145885E-16  8.940423729015E-01
    outer loop
      vertex   3.694444444445E+00  6.250000000000E-01  1.064770659382E+00
      vertex   4.222222222222E+00  7.500000000000E-01  1.329226982167E+00
      vertex   3.166666666667E+00  7.500000000000E-01  8.003143365966E-01
    endloop
  endfacet
  facet normal  -4.479824052981E-01  0.000000000000E+00  8.940423729015E-01
    outer loop
      vertex   3.694444444445E+00  6.250000000000E-01  1.064770659382E+00
      vertex   3.166666666667E+00  7.500000000000E-01  8.003143365966E-01
      vertex   3.166666666667E+00  5.000000000000E-01  8.003143365966E-01
    endloop
  endfacet
  facet normal   6.900958822576E-01  0.000000000000E+00 -7.237179514777E-01
    outer loop
      vertex   4.750000000000E+00  6.250000000000E-01  8.324855657740E-01
      vertex   4.222222222222E+00  5.000000000000E-01  3.292269821670E-01
      vertex   4.222222222222E+00  7.500000000000E-01  3.292269821670E-01
    endloop
  endfacet
  facet normal   6.900958822576E-01  0.000000000000E+00 -7.237179514777E-01
    outer loop
      vertex   4.750000000000E+00  6.250000000000E-01  8.324855657740E-01
      vertex   4.222222222222E+00  7.500000000000E-01  3.292269821670E-01
      vertex   5.277777777778E+00  7.500000000000E-01  1.335744149381E+00
    endloop
  endfacet
  facet normal   6.900958822576E-01  0.000000000000E+00 -7.237179514777E-01
    outer loop
      vertex   4.750000000000E+00  6.250000000000E-01  8.324855657740E-01
      vertex   5.277777777778E+00  7.500000000000E-01  1.335744149381E+00
      vertex   5.277777777778E+00  5.000000000000E-01  1.335744149381E+00
    endloop
  endfacet
  facet normal   6.900958822576E-01  0.000000000000E+00 -7.237179514777E-01
    outer loop
      vertex   4.750000000000E+00  6.250000000000E-01  8.324855657740E-01
      vertex   5.277777777778E+00  5.000000000000E-01  1.335744149381E+00
      vertex   4.222222222222E+00  5.000000000000E-01  3.292269821670E-01
    endloop
  endfacet
  facet normal  -6.900958822576E-01 -1.217919157488E-15  7.237179514777E-01
    outer loop
      vertex   4.750000000000E+00  6.250000000000E-01  1.832485565774E+00
      vertex   4.222222222222E+00  5.000000000000E-01  1.329226982167E+00
      vertex   5.277777777778E+00  5.000000000000E-01  2.335744149381E+00
    endloop
  endfacet
  facet normal  -6.900958822576E-01  0.000000000000E+00  7.237179514777E-01
    outer loop
      vertex   4.750000000000E+00  6.250000000000E-01  1.832485565774E+00
      vertex   5.277777777778E+00  5.000000000000E-01  2.335744149381E+00
      vertex   5.277777777778E+00  7.500000000000E-01  2.335744149381E+00
    endloop
  endfacet
  facet normal  -6.900958822576E-01  1.217919157488E-15  7.237179514777E-01
    outer loop
      vertex   4.750000000000E+00  6.250000000000E-01  1.832485565774E+00
      vertex   5.277777777778E+00  7.500000000000E-01  2.335744149381E+00
      vertex   4.222222222222E+00  7.500000000000E-01  1.329226982167E+00
    endloop
  endfacet
  facet normal  -6.900958822576E-01  0.000000000000E+00  7.237179514777E-01
    outer loop
      vertex   4.750000000000E+00  6.250000000000E-01  1.832485565774E+00
      vertex   4.222222222222E+00  7.500000000000E-01  1.329226982167E+00
      vertex   4.222222222222E+00  5.000000000000E-01  1.329226982167E+00
    endloop
  endfacet
  facet normal   4.016874988922E-01  0.000000000000E+00 -9.157768031752E-01
    outer loop
      vertex   5.805555555556E+00  6.250000000000E-01  1.567243500305E+00
      vertex   5.277777777778E+00  5.000000000000E-01  1.335744149381E+00
      vertex   5.277777777778E+00  7.500000000000E-01  1.335744149381E+00
    endloop
  endfacet
  facet normal   4.016874988922E-01  1.444807646957E-15 -9.157768031752E-01
    outer loop
      vertex   5.805555555556E+00  6.250000000000E-01  1.567243500305E+00
      vertex   5.277777777778E+00  7.500000000000E-01  1.335744149381E+00
      vertex   6.333333333333E+00  7.500000000000E-01  1.798742851229E+00
    endloop
  endfacet
  facet normal   4.016874988922E-01  0.000000000000E+00 -9.157768031752E-01
    outer loop
      vertex   5.805555555556E+00  6.250000000000E-01  1.567243500305E+00
      vertex   6.333333333333E+00  7.500000000000E-01  1.798742851229E+00
      vertex   6.333333333333E+00  5.000000000000E-01  1.798742851229E+00
    endloop
  endfacet
  facet normal   4.016874988922E-01 -1.444807646957E-15 -9.157768031752E-01
    outer loop
      vertex   5.805555555556E+00  6.250000000000E-01  1.567243500305E+00
      vertex   6.333333333333E+00  5.000000000000E-01  1.798742851229E+00
      vertex   5.277777777778E+00  5.000000000000E-01  1.335744149381E+00
    endloop
  endfacet
  facet normal  -4.016874988922E-01  1.444807646957E-15  9.157768031752E-01
    outer loop
      vertex   5.805555555556E+00  6.250000000000E-01  2.567243500305E+00
      vertex   5.277777777778E+00  5.000000000000E-01  2.335744149381E+00
      vertex   6.333333333333E+00  5.000000000000E-01  2.798742851229E+00
    endloop
  endfacet
  facet normal  -4.016874988922E-01  0.000000000000E+00  9.157768031752E-01
    outer loop
      vertex   5.805555555556E+00  6.250000000000E-01  2.567243500305E+00
      vertex   6.333333333333E+00  5.000000000000E-01  2.798742851229E+00
      vertex   6.333333333333E+00  7.500000000000E-01  2.798742851229E+00
    endloop
  endfacet
  facet normal  -4.016874988922E-01 -1.444807646957E-15  9.157768031752E-01
    outer loop
      vertex   5.805555555556E+00  6.250000000000E-01  2.567243500305E+00
      vertex   6.333333333333E+00  7.500000000000E-01  2.798742851229E+00
      vertex   5.277777777778E+00  7.500000000000E-01  2.335744149381E+00
    endloop
  endfacet
  facet normal  -4.016874988922E-01  0.000000000000E+00  9.157768031752E-01
    outer loop
      vertex   5.805555555556E+00  6.250000000000E-01  2.567243500305E+00
      vertex   5.277777777778E+00  7.500000000000E-01  2.335744149381E+00
      vertex   5.277777777778E+00  5.000000000000E-01  2.335744149381E+00
    endloop
  endfacet
  facet normal   1.000000000000E+00  0.000000000000E+00  0.000000000000E+00
    outer loop
      vertex   6.333333333333E+00  6.250000000000E-01  2.298742851229E+00
      vertex   6.333333333333E+00  5.000000000000E-01  1.798742851229E+00
      vertex   6.333333333333E+00  7.500000000000E-01  1.798742851229E+00
    endloop
  endfacet
  facet normal   1.000000000000E+00  0.000000000000E+00  0.000000000000E+00
    outer loop
      vertex   6.333333333333E+00  6.250000000000E-01  2.298742851229E+00
      vertex   6.333333333333E+00  7.500000000000E-01  1.798742851229E+00
      vertex   6.333333333333E+00  7.500000000000E-01  2.798742851229E+00
    endloop
  endfacet
  facet normal   1.000000000000E+00  0.000000000000E+00  0.000000000000E+00
    outer loop
      vertex   6.333333333333E+00  6.250000000000E-01  2.298742851229E+00
      vertex   6.333333333333E+00  7.500000000000E-01  2.798742851229E+00
      vertex   6.333333333333E+00  5.000000000000E-01  2.798742851229E+00
    endloop
  endfacet
  facet normal   1.000000000000E+00  0.000000000000E+00  0.000000000000E+00
    outer loop
      vertex   6.333333333333E+00  6.250000000000E-01  2.298742851229E+00
      vertex   6.333333333333E+00  5.000000000000E-01  2.798742851229E+00
      vertex   6.333333333333E+00  5.000000000000E-01  1.798742851229E+00
    endloop
  endfacet
  facet normal  -4.331397550050E-01  0.000000000000E+00 -9.013267735035E-01
    outer loop
      vertex   5.277777777780E-01  8.750000000000E-01  1.546372188108E+00
      vertex   0.000000000000E+00  7.500000000000E-01  1.800000000000E+00
      vertex   0.000000000000E+00  1.000000000000E+00  1.800000000000E+00
    endloop
  endfacet
  facet normal  -4.331397550050E-01 -9.480066978830E-16 -9.013267735035E-01
    outer loop
      vertex   5.277777777780E-01  8.750000000000E-01  1.546372188108E+00
      vertex   0.000000000000E+00  1.000000000000E+00  1.800000000000E+00
      vertex   1.055555555556E+00  1.000000000000E+00  1.292744376215E+00
    endloop
  endfacet
  facet normal  -4.331397550050E-01  0.000000000000E+00 -9.013267735035E-01
    outer loop
      vertex   5.277777777780E-01  8.750000000000E-01  1.546372188108E+00
      vertex   1.055555555556E+00  1.000000000000E+00  1.292744376215E+00
      vertex   1.055555555556E+00  7.500000000000E-01  1.292744376215E+00
    endloop
  endfacet
  facet normal  -4.331397550050E-01  9.480066978830E-16 -9.013267735035E-01
    outer loop
      vertex   5.277777777780E-01  8.750000000000E-01  1.546372188108E+00
      vertex   1.055555555556E+00  7.500000000000E-01  1.292744376215E+00
      vertex   0.000000000000E+00  7.500000000000E-01  1.800000000000E+00
    endloop
  endfacet
  facet normal   4.331397550050E-01 -1.706412056189E-15  9.013267735035E-01
    outer loop
      vertex   5.277777777780E-01  8.750000000000E-01  2.546372188108E+00
      vertex   0.000000000000E+00  7.500000000000E-01  2.800000000000E+00
      vertex   1.055555555556E+00  7.500000000000E-01  2.292744376215E+00
    endloop
  endfacet
  facet normal   4.331397550050E-01  0.000000000000E+00  9.013267735035E-01
    outer loop
      vertex   5.277777777780E-01  8.750000000000E-01  2.546372188108E+00
      vertex   1.055555555556E+00  7.500000000000E-01  2.292744376215E+00
      vertex   1.055555555556E+00  1.000000000000E+00  2.292744376215E+00
    endloop
  endfacet
  facet normal   4.331397550050E-01  1.706412056189E-15  9.013267735035E-01
    outer loop
      vertex   5.277777777780E-01  8.750000000000E-01  2.546372188108E+00
      vertex   1.055555555556E+00  1.000000000000E+00  2.292744376215E+00
      vertex   0.000000000000E+00  1.000000000000E+00  2.800000000000E+00
    endloop
  endfacet
  facet normal   4.331397550050E-01  0.000000000000E+00  9.013267735035E-01
    outer loop
      vertex   5.277777777780E-01  8.750000000000E-01  2.546372188108E+00
      vertex   0.000000000000E+00  1.000000000000E+00  2.800000000000E+00
      vertex   0.000000000000E+00  7.500000000000E-01  2.800000000000E+00
    endloop
  endfacet
  facet normal   0.000000000000E+00  1.000000000000E+00  0.000000000000E+00
    outer loop
      vertex   5.277777777780E-01  1.000000000000E+00  2.046372188108E+00
      vertex   1.055555555556E+00  1.000000000000E+00  1.292744376215E+00
      vertex   0.000000000000E+00  1.000000000000E+00  1.800000000000E+00
    endloop
  endfacet
  facet normal   0.000000000000E+00  1.000000000000E+00  0.000000000000E+00
    outer loop
      vertex   5.277777777780E-01  1.000000000000E+00  2.046372188108E+00
      vertex   0.000000000000E+00  1.000000000000E+00  1.800000000000E+00
      vertex   0.000000000000E+00  1.000000000000E+00  2.800000000000E+00
    endloop
  endfacet
  facet normal   0.000000000000E+00  1.000000000000E+00  0.000000000000E+00
    outer loop
      vertex   5.277777777780E-01  1.000000000000E+00  2.046372188108E+00
      vertex   0.000000000000E+00  1.000000000000E+00  2.800000000000E+00
      vertex   1.055555555556E+00  1.000000000000E+00  2.292744376215E+00
    endloop
  endfacet
  facet normal   0.000000000000E+00  1.000000000000E+00  0.000000000000E+00
    outer loop
      vertex   5.277777777780E-01  1.000000000000E+00  2.046372188108E+00
      vertex   1.055555555556E+00  1.000000000000E+00  2.292744376215E+00
      vertex   1.055555555556E+00  1.000000000000E+00  1.292744376215E+00
    endloop
  endfacet
  facet normal  -1.000000000000E+00  0.000000000000E+00  0.000000000000E+00
    outer loop
      vertex   0.000000000000E+00  8.750000000000E-01  2.300000000000E+00
      vertex   0.000000000000E+00  7.500000000000E-01  1.800000000000E+00
      vertex   0.000000000000E+00  7.500000000000E-01  2.800000000000E+00
    endloop
  endfacet
  facet normal  -1.000000000000E+00  0.000000000000E+00  0.000000000000E+00
    outer loop
      vertex   0.000000000000E+00  8.750000000000E-01  2.300000000000E+00
      vertex   0.000000000000E+00  7.500000000000E-01  2.800000000000E+00
      vertex   0.000000000000E+00  1.000000000000E+00  2.800000000000E+00
    endloop
  endfacet
  facet normal  -1.000000000000E+00  0.000000000000E+00  0.000000000000E+00
    outer loop
      vertex   0.000000000000E+00  8.750000000000E-01  2.300000000000E+00
      vertex   0.000000000000E+00  1.000000000000E+00  2.800000000000E+00
      vertex   0.000000000000E+00  1.000000000000E+00  1.800000000000E+00
    endloop
  endfacet
  facet normal  -1.000000000000E+00  0.000000000000E+00  0.000000000000E+00
    outer loop
      vertex   0.000000000000E+00  8.750000000000E-01  2.300000000000E+00
      vertex   0.000000000000E+00  1.000000000000E+00  1.800000000000E+00
      vertex   0.000000000000E+00  7.500000000000E-01  1.800000000000E+00
    endloop
  endfacet
  facet normal  -6.903231569280E-01  0.000000000000E+00 -7.235011672478E-01
    outer loop
      vertex   1.583333333334E+00  8.750000000000E-01  7.891692083991E-01
      vertex   1.055555555556E+00  7.500000000000E-01  1.292744376215E+00
      vertex   1.055555555556E+00  1.000000000000E+00  1.292744376215E+00
    endloop
  endfacet
  facet normal  -6.903231569280E-01  0.000000000000E+00 -7.235011672478E-01
    outer loop
      vertex   1.583333333334E+00  8.750000000000E-01  7.891692083991E-01
      vertex   1.055555555556E+00  1.000000000000E+00  1.292744376215E+00
      vertex   2.111111111111E+00  1.000000000000E+00  2.855940405832E-01
    endloop
  endfacet
  facet normal  -6.903231569280E-01  0.000000000000E+00 -7.235011672478E-01
    outer loop
      vertex   1.583333333334E+00  8.750000000000E-01  7.891692083991E-01
      vertex   2.111111111111E+00  1.000000000000E+00  2.855940405832E-01
      vertex   2.111111111111E+00  7.500000000000E-01  2.855940405832E-01
    endloop
  endfacet
  facet normal  -6.903231569280E-01  0.000000000000E+00 -7.235011672478E-01
    outer loop
      vertex   1.583333333334E+00  8.750000000000E-01  7.891692083991E-01
      vertex   2.111111111111E+00  7.500000000000E-01  2.855940405832E-01
      vertex   1.055555555556E+00  7.500000000000E-01  1.292744376215E+00
    endloop
  endfacet
  facet normal   6.903231569281E-01 -6.087771695157E-16  7.235011672477E-01
    outer loop
      vertex   1.583333333334E+00  8.750000000000E-01  1.789169208399E+00
      vertex   1.055555555556E+00  7.500000000000E-01  2.292744376215E+00
      vertex   2.111111111111E+00  7.500000000000E-01  1.285594040583E+00
    endloop
  endfacet
  facet normal   6.903231569281E-01  0.000000000000E+00  7.235011672477E-01
    outer loop
      vertex   1.583333333334E+00  8.750000000000E-01  1.789169208399E+00
      vertex   2.111111111111E+00  7.500000000000E-01  1.285594040583E+00
      vertex   2.111111111111E+00  1.000000000000E+00  1.285594040583E+00
    endloop
  endfacet
  facet normal   6.903231569281E-01  6.087771695157E-16  7.235011672477E-01
    outer loop
      vertex   1.583333333334E+00  8.750000000000E-01  1.789169208399E+00
      vertex   2.111111111111E+00  1.000000000000E+00  1.285594040583E+00
      vertex   1.055555555556E+00  1.000000000000E+00  2.292744376215E+00
    endloop
  endfacet
  facet normal   6.903231569281E-01  0.000000000000E+00  7.235011672477E-01
    outer loop
      vertex   1.583333333334E+00  8.750000000000E-01  1.789169208399E+00
      vertex   1.055555555556E+00  1.000000000000E+00  2.292744376215E+00
      vertex   1.055555555556E+00  7.500000000000E-01  2.292744376215E+00
    endloop
  endfacet
  facet normal   0.000000000000E+00  1.000000000000E+00  0.000000000000E+00
    outer loop
      vertex   1.583333333334E+00  1.000000000000E+00  1.289169208399E+00
      vertex   2.111111111111E+00  1.000000000000E+00  2.855940405832E-01
      vertex   1.055555555556E+00  1.000000000000E+00  1.292744376215E+00
    endloop
  endfacet
  facet normal   0.000000000000E+00  1.000000000000E+00  0.000000000000E+00
    outer loop
      vertex   1.583333333334E+00  1.000000000000E+00  1.289169208399E+00
      vertex   1.055555555556E+00  1.000000000000E+00  1.292744376215E+00
      vertex   1.055555555556E+00  1.000000000000E+00  2.292744376215E+00
    endloop
  endfacet
  facet normal   0.000000000000E+00  1.000000000000E+00  0.000000000000E+00
    outer loop
      vertex   1.583333333334E+00  1.000000000000E+00  1.289169208399E+00
      vertex   1.055555555556E+00  1.000000000000E+00  2.292744376215E+00
      vertex   2.111111111111E+00  1.000000000000E+00  1.285594040583E+00
    endloop
  endfacet
  facet normal   0.000000000000E+00  1.000000000000E+00  0.000000000000E+00
    outer loop
      vertex   1.583333333334E+00  1.000000000000E+00  1.289169208399E+00
      vertex   2.111111111111E+00  1.000000000000E+00  1.285594040583E+00
      vertex   2.111111111111E+00  1.000000000000E+00  2.855940405832E-01
    endloop
  endfacet
  facet normal  -4.177096244680E-01  0.000000000000E+00 -9.085805796003E-01
    outer loop
      vertex   2.638888888889E+00  8.750000000000E-01  4.295418858990E-02
      vertex   2.111111111111E+00  7.500000000000E-01  2.855940405832E-01
      vertex   2.111111111111E+00  1.000000000000E+00  2.855940405832E-01
    endloop
  endfacet
  facet normal  -4.177096244680E-01 -7.645089442351E-16 -9.085805796003E-01
    outer loop
      vertex   2.638888888889E+00  8.750000000000E-01  4.295418858990E-02
      vertex   2.111111111111E+00  1.000000000000E+00  2.855940405832E-01
      vertex   3.166666666667E+00  1.000000000000E+00 -1.996856634034E-01
    endloop
  endfacet
  facet normal  -4.177096244680E-01  0.000000000000E+00 -9.085805796003E-01
    outer loop
      vertex   2.638888888889E+00  8.750000000000E-01  4.295418858990E-02
      vertex   3.166666666667E+00  1.000000000000E+00 -1.996856634034E-01
      vertex   3.166666666667E+00  7.500000000000E-01 -1.996856634034E-01
    endloop
  endfacet
  facet normal  -4.177096244680E-01  7.645089442351E-16 -9.085805796003E-01
    outer loop
      vertex   2.638888888889E+00  8.750000000000E-01  4.295418858990E-02
      vertex   3.166666666667E+00  7.500000000000E-01 -1.996856634034E-01
      vertex   2.111111111111E+00  7.500000000000E-01  2.855940405832E-01
    endloop
  endfacet
  facet normal   4.177096244679E-01 -3.822544721176E-16  9.085805796004E-01
    outer loop
      vertex   2.638888888889E+00  8.750000000000E-01  1.042954188590E+00
      vertex   2.111111111111E+00  7.500000000000E-01  1.285594040583E+00
      vertex   3.166666666667E+00  7.500000000000E-01  8.003143365966E-01
    endloop
  endfacet
  facet normal   4.177096244679E-01  0.000000000000E+00  9.085805796004E-01
    outer loop
      vertex   2.638888888889E+00  8.750000000000E-01  1.042954188590E+00
      vertex   3.166666666667E+00  7.500000000000E-01  8.003143365966E-01
      vertex   3.166666666667E+00  1.000000000000E+00  8.003143365966E-01
    endloop
  endfacet
  facet normal   4.177096244679E-01  3.822544721176E-16  9.085805796004E-01
    outer loop
      vertex   2.638888888889E+00  8.750000000000E-01  1.042954188590E+00
      vertex   3.166666666667E+00  1.000000000000E+00  8.003143365966E-01
      vertex   2.111111111111E+00  1.000000000000E+00  1.285594040583E+00
    endloop
  endfacet
  facet normal   4.177096244679E-01  0.000000000000E+00  9.085805796004E-01
    outer loop
      vertex   2.638888888889E+00  8.750000000000E-01  1.042954188590E+00
      vertex   2.111111111111E+00  1.000000000000E+00  1.285594040583E+00
      vertex   2.111111111111E+00  7.500000000000E-01  1.285594040583E+00
    endloop
  endfacet
  facet normal   0.000000000000E+00  1.000000000000E+00  0.000000000000E+00
    outer loop
      vertex   2.638888888889E+00  1.000000000000E+00  5.429541885899E-01
      vertex   3.166666666667E+00  1.000000000000E+00 -1.996856634034E-01
      vertex   2.111111111111E+00  1.000000000000E+00  2.855940405832E-01
    endloop
  endfacet
  facet normal   0.000000000000E+00  1.000000000000E+00  0.000000000000E+00
    outer loop
      vertex   2.638888888889E+00  1.000000000000E+00  5.429541885899E-01
      vertex   2.111111111111E+00  1.000000000000E+00  2.855940405832E-01
      vertex   2.111111111111E+00  1.000000000000E+00  1.285594040583E+00
    endloop
  endfacet
  facet normal   0.000000000000E+00  1.000000000000E+00  0.000000000000E+00
    outer loop
      vertex   2.638888888889E+00  1.000000000000E+00  5.429541885899E-01
      vertex   2.111111111111E+00  1.000000000000E+00  1.285594040583E+00
      vertex   3.166666666667E+00  1.000000000000E+00  8.003143365966E-01
    endloop
  endfacet
  facet normal   0.000000000000E+00  1.000000000000E+00  0.000000000000E+00
    outer loop
      vertex   2.638888888889E+00  1.000000000000E+00  5.429541885899E-01
      vertex   3.166666666667E+00  1.000000000000E+00  8.003143365966E-01
      vertex   3.166666666667E+00  1.000000000000E+00 -1.996856634034E-01
    endloop
  endfacet
  facet normal   4.479824052981E-01  0.000000000000E+00 -8.940423729015E-01
    outer loop
      vertex   3.694444444445E+00  8.750000000000E-01  6.477065938180E-02
      vertex   3.166666666667E+00  7.500000000000E-01 -1.996856634034E-01
      vertex   3.166666666667E+00  1.000000000000E+00 -1.996856634034E-01
    endloop
  endfacet
  facet normal   4.479824052981E-01  1.692621065648E-15 -8.940423729015E-01
    outer loop
      vertex   3.694444444445E+00  8.750000000000E-01  6.477065938180E-02
      vertex   3.166666666667E+00  1.000000000000E+00 -1.996856634034E-01
      vertex   4.222222222222E+00  1.000000000000E+00  3.292269821670E-01
    endloop
  endfacet
  facet normal   4.479824052981E-01  0.000000000000E+00 -8.940423729015E-01
    outer loop
      vertex   3.694444444445E+00  8.750000000000E-01  6.477065938180E-02
      vertex   4.222222222222E+00  1.000000000000E+00  3.292269821670E-01
      vertex   4.222222222222E+00  7.500000000000E-01  3.292269821670E-01
    endloop
  endfacet
  facet normal   4.479824052981E-01 -1.692621065648E-15 -8.940423729015E-01
    outer loop
      vertex   3.694444444445E+00  8.750000000000E-01  6.477065938180E-02
      vertex   4.222222222222E+00  7.500000000000E-01  3.292269821670E-01
      vertex   3.166666666667E+00  7.500000000000E-01 -1.996856634034E-01
    endloop
  endfacet
  facet normal  -4.479824052981E-01 -3.761380145885E-16  8.940423729015E-01
    outer loop
      vertex   3.694444444445E+00  8.750000000000E-01  1.064770659382E+00
      vertex   3.166666666667E+00  7.500000000000E-01  8.003143365966E-01
      vertex   4.222222222222E+00  7.500000000000E-01  1.329226982167E+00
    endloop
  endfacet
  facet normal  -4.479824052981E-01  0.000000000000E+00  8.940423729015E-01
    outer loop
      vertex   3.694444444445E+00  8.750000000000E-01  1.064770659382E+00
      vertex   4.222222222222E+00  7.500000000000E-01  1.329226982167E+00
      vertex   4.222222222222E+00  1.000000000000E+00  1.329226982167E+00
    endloop
  endfacet
  facet normal  -4.479824052981E-01  3.761380145885E-16  8.940423729015E-01
    outer loop
      vertex   3.694444444445E+00  8.750000000000E-01  1.064770659382E+00
      vertex   4.222222222222E+00  1.000000000000E+00  1.329226982167E+00
      vertex   3.166666666667E+00  1.000000000000E+00  8.003143365966E-01
    endloop
  endfacet
  facet normal  -4.479824052981E-01  0.000000000000E+00  8.940423729015E-01
    outer loop
      vertex   3.694444444445E+00  8.750000000000E-01  1.064770659382E+00
      vertex   3.166666666667E+00  1.000000000000E+00  8.003143365966E-01
      vertex   3.166666666667E+00  7.500000000000E-01  8.003143365966E-01
    endloop
  endfacet
  facet normal   0.000000000000E+00  1.000000000000E+00  0.000000000000E+00
    outer loop
      vertex   3.694444444445E+00  1.000000000000E+00  5.647706593818E-01
      vertex   4.222222222222E+00  1.000000000000E+00  3.292269821670E-01
      vertex   3.166666666667E+00  1.000000000000E+00 -1.996856634034E-01
    endloop
  endfacet
  facet normal   0.000000000000E+00  1.000000000000E+00  0.000000000000E+00
    outer loop
      vertex   3.694444444445E+00  1.000000000000E+00  5.647706593818E-01
      vertex   3.166666666667E+00  1.000000000000E+00 -1.996856634034E-01
      vertex   3.166666666667E+00  1.000000000000E+00  8.003143365966E-01
    endloop
  endfacet
  facet normal   0.000000000000E+00  1.000000000000E+00  0.000000000000E+00
    outer loop
      vertex   3.694444444445E+00  1.000000000000E+00  5.647706593818E-01
      vertex   3.166666666667E+00  1.000000000000E+00  8.003143365966E-01
      vertex   4.222222222222E+00  1.000000000000E+00  1.329226982167E+00
    endloop
  endfacet
  facet normal   0.000000000000E+00  1.000000000000E+00  0.000000000000E+00
    outer loop
      vertex   3.694444444445E+00  1.000000000000E+00  5.647706593818E-01
      vertex   4.222222222222E+00  1.000000000000E+00  1.329226982167E+00
      vertex   4.222222222222E+00  1.000000000000E+00  3.292269821670E-01
    endloop
  endfacet
  facet normal   6.900958822576E-01  0.000000000000E+00 -7.237179514777E-01
    outer loop
      vertex   4.750000000000E+00  8.750000000000E-01  8.324855657740E-01
      vertex   4.222222222222E+00  7.500000000000E-01  3.292269821670E-01
      vertex   4.222222222222E+00  1.000000000000E+00  3.292269821670E-01
    endloop
  endfacet
  facet normal   6.900958822576E-01  0.000000000000E+00 -7.237179514777E-01
    outer loop
      vertex   4.750000000000E+00  8.750000000000E-01  8.324855657740E-01
      vertex   4.222222222222E+00  1.000000000000E+00  3.292269821670E-01
      vertex   5.277777777778E+00  1.000000000000E+00  1.335744149381E+00
    endloop
  endfacet
  facet normal   6.900958822576E-01  0.000000000000E+00 -7.237179514777E-01
    outer loop
      vertex   4.750000000000E+00  8.750000000000E-01  8.324855657740E-01
      vertex   5.277777777778E+00  1.000000000000E+00  1.335744149381E+00
      vertex   5.277777777778E+00  7.500000000000E-01  1.335744149381E+00
    endloop
  endfacet
  facet normal   6.900958822576E-01  0.000000000000E+00 -7.237179514777E-01
    outer loop
      vertex   4.750000000000E+00  8.750000000000E-01  8.324855657740E-01
      vertex   5.277777777778E+00  7.500000000000E-01  1.335744149381E+00
      vertex   4.222222222222E+00  7.500000000000E-01  3.292269821670E-01
    endloop
  endfacet
  facet normal  -6.900958822576E-01 -1.217919157488E-15  7.237179514777E-01
    outer loop
      vertex   4.750000000000E+00  8.750000000000E-01  1.832485565774E+00
      vertex   4.222222222222E+00  7.500000000000E-01  1.329226982167E+00
      vertex   5.277777777778E+00  7.500000000000E-01  2.335744149381E+00
    endloop
  endfacet
  facet normal  -6.900958822576E-01  0.000000000000E+00  7.237179514777E-01
    outer loop
      vertex   4.750000000000E+00  8.750000000000E-01  1.832485565774E+00
      vertex   5.277777777778E+00  7.500000000000E-01  2.335744149381E+00
      vertex   5.277777777778E+00  1.000000000000E+00  2.335744149381E+00
    endloop
  endfacet
  facet normal  -6.900958822576E-01  1.217919157488E-15  7.237179514777E-01
    outer loop
      vertex   4.750000000000E+00  8.750000000000E-01  1.832485565774E+00
      vertex   5.277777777778E+00  1.000000000000E+00  2.335744149381E+00
      vertex   4.222222222222E+00  1.000000000000E+00  1.329226982167E+00
    endloop
  endfacet
  facet normal  -6.900958822576E-01  0.000000000000E+00  7.237179514777E-01
    outer loop
      vertex   4.750000000000E+00  8.750000000000E-01  1.832485565774E+00
      vertex   4.222222222222E+00  1.000000000000E+00  1.329226982167E+00
      vertex   4.222222222222E+00  7.500000000000E-01  1.329226982167E+00
    endloop
  endfacet
  facet normal   0.000000000000E+00  1.000000000000E+00  0.000000000000E+00
    outer loop
      vertex   4.750000000000E+00  1.000000000000E+00  1.332485565774E+00
      vertex   5.277777777778E+00  1.000000000000E+00  1.335744149381E+00
      vertex   4.222222222222E+00  1.000000000000E+00  3.292269821670E-01
    endloop
  endfacet
  facet normal   0.000000000000E+00  1.000000000000E+00  0.000000000000E+00
    outer loop
      vertex   4.750000000000E+00  1.000000000000E+00  1.332485565774E+00
      vertex   4.222222222222E+00  1.000000000000E+00  3.292269821670E-01
      vertex   4.222222222222E+00  1.000000000000E+00  1.329226982167E+00
    endloop
  endfacet
  facet normal   0.000000000000E+00  1.000000000000E+00  0.000000000000E+00
    outer loop
      vertex   4.750000000000E+00  1.000000000000E+00  1.332485565774E+00
      vertex   4.222222222222E+00  1.000000000000E+00  1.329226982167E+00
      vertex   5.277777777778E+00  1.000000000000E+00  2.335744149381E+00
    endloop
  endfacet
  facet normal   0.000000000000E+00  1.000000000000E+00  0.000000000000E+00
    outer loop
      vertex   4.750000000000E+00  1.000000000000E+00  1.332485565774E+00
      vertex   5.277777777778E+00  1.000000000000E+00  2.335744149381E+00
      vertex   5.277777777778E+00  1.000000000000E+00  1.335744149381E+00
    endloop
  endfacet
  facet normal   4.016874988922E-01  0.000000000000E+00 -9.157768031752E-01
    outer loop
      vertex   5.805555555556E+00  8.750000000000E-01  1.567243500305E+00
      vertex   5.277777777778E+00  7.500000000000E-01  1.335744149381E+00
      vertex   5.277777777778E+00  1.000000000000E+00  1.335744149381E+00
    endloop
  endfacet
  facet normal   4.016874988922E-01  1.444807646957E-15 -9.157768031752E-01
    outer loop
      vertex   5.805555555556E+00  8.750000000000E-01  1.567243500305E+00
      vertex   5.277777777778E+00  1.000000000000E+00  1.335744149381E+00
      vertex   6.333333333333E+00  1.000000000000E+00  1.798742851229E+00
    endloop
  endfacet
  facet normal   4.016874988922E-01  0.000000000000E+00 -9.157768031752E-01
    outer loop
      vertex   5.805555555556E+00  8.750000000000E-01  1.567243500305E+00
      vertex   6.333333333333E+00  1.000000000000E+00  1.798742851229E+00
      vertex   6.333333333333E+00  7.500000000000E-01  1.798742851229E+00
    endloop
  endfacet
  facet normal   4.016874988922E-01 -1.444807646957E-15 -9.157768031752E-01
    outer loop
      vertex   5.805555555556E+00  8.750000000000E-01  1.567243500305E+00
      vertex   6.333333333333E+00  7.500000000000E-01  1.798742851229E+00
      vertex   5.277777777778E+00  7.500000000000E-01  1.335744149381E+00
    endloop
  endfacet
  facet normal  -4.016874988922E-01  1.444807646957E-15  9.157768031752E-01
    outer loop
      vertex   5.805555555556E+00  8.750000000000E-01  2.567243500305E+00
      vertex   5.277777777778E+00  7.500000000000E-01  2.335744149381E+00
      vertex   6.333333333333E+00  7.500000000000E-01  2.798742851229E+00
    endloop
  endfacet
  facet normal  -4.016874988922E-01  0.000000000000E+00  9.157768031752E-01
    outer loop
      vertex   5.805555555556E+00  8.750000000000E-01  2.567243500305E+00
      vertex   6.333333333333E+00  7.500000000000E-01  2.798742851229E+00
      vertex   6.333333333333E+00  1.000000000000E+00  2.798742851229E+00
    endloop
  endfacet
  facet normal  -4.016874988922E-01 -1.444807646957E-15  9.157768031752E-01
    outer loop
      vertex   5.805555555556E+00  8.750000000000E-01  2.567243500305E+00
      vertex   6.333333333333E+00  1.000000000000E+00  2.798742851229E+00
      vertex   5.277777777778E+00  1.000000000000E+00  2.335744149381E+00
    endloop
  endfacet
  facet normal  -4.016874988922E-01  0.000000000000E+00  9.157768031752E-01
    outer loop
      vertex   5.805555555556E+00  8.750000000000E-01  2.567243500305E+00
      vertex   5.277777777778E+00  1.000000000000E+00  2.335744149381E+00
      vertex   5.277777777778E+00  7.500000000000E-01  2.335744149381E+00
    endloop
  endfacet
  facet normal   1.000000000000E+00  0.000000000000E+00  0.000000000000E+00
    outer loop
      vertex   6.333333333333E+00  8.750000000000E-01  2.298742851229E+00
      vertex   6.333333333333E+00  7.500000000000E-01  1.798742851229E+00
      vertex   6.333333333333E+00  1.000000000000E+00  1.798742851229E+00
    endloop
  endfacet
  facet normal   1.000000000000E+00  0.000000000000E+00  0.000000000000E+00
    outer loop
      vertex   6.333333333333E+00  8.750000000000E-01  2.298742851229E+00
      vertex   6.333333333333E+00  1.000000000000E+00  1.798742851229E+00
      vertex   6.333333333333E+00  1.000000000000E+00  2.798742851229E+00
    endloop
  endfacet
  facet normal   1.000000000000E+00  0.000000000000E+00  0.000000000000E+00
    outer loop
      vertex   6.333333333333E+00  8.750000000000E-01  2.298742851229E+00
      vertex   6.333333333333E+00  1.000000000000E+00  2.798742851229E+00
      vertex   6.333333333333E+00  7.500000000000E-01  2.798742851229E+00
    endloop
  endfacet
  facet normal   1.000000000000E+00  0.000000000000E+00  0.000000000000E+00
    outer loop
      vertex   6.333333333333E+00  8.750000000000E-01  2.298742851229E+00
      vertex   6.333333333333E+00  7.500000000000E-01  2.798742851229E+00
      vertex   6.333333333333E+00  7.500000000000E-01  1.798742851229E+00
    endloop
  endfacet
  facet normal   0.000000000000E+00  1.000000000000E+00  0.000000000000E+00
    outer loop
      vertex   5.805555555556E+00  1.000000000000E+00  2.067243500305E+00
      vertex   6.333333333333E+00  1.000000000000E+00  1.798742851229E+00
      vertex   5.277777777778E+00  1.000000000000E+00  1.335744149381E+00
    endloop
  endfacet
  facet normal   0.000000000000E+00  1.000000000000E+00  0.000000000000E+00
    outer loop
      vertex   5.805555555556E+00  1.000000000000E+00  2.067243500305E+00
      vertex   5.277777777778E+00  1.000000000000E+00  1.335744149381E+00
      vertex   5.277777777778E+00  1.000000000000E+00  2.335744149381E+00
    endloop
  endfacet
  facet normal   0.000000000000E+00  1.000000000000E+00  0.000000000000E+00
    outer loop
      vertex   5.805555555556E+00  1.000000000000E+00  2.067243500305E+00
      vertex   5.277777777778E+00  1.000000000000E+00  2.335744149381E+00
      vertex   6.333333333333E+00  1.000000000000E+00  2.798742851229E+00
    endloop
  endfacet
  facet normal   0.000000000000E+00  1.000000000000E+00  0.000000000000E+00
    outer loop
      vertex   5.805555555556E+00  1.000000000000E+00  2.067243500305E+00
      vertex   6.333333333333E+00  1.000000000000E+00  2.798742851229E+00
      vertex   6.333333333333E+00  1.000000000000E+00  1.798742851229E+00
    endloop
  endfacet
 endsolid mo_tri                          
